<svg width="55" height="55" viewBox="0 0 55 55" fill="none" xmlns="http://www.w3.org/2000/svg">
<path d="M40.4114 14.3972L41.482 31.7784C41.4976 32.0319 41.4632 32.2861 41.3806 32.5264C41.298 32.7666 41.1688 32.9882 41.0006 33.1786C40.8323 33.3689 40.6282 33.5243 40.3999 33.6357C40.1716 33.7472 39.9236 33.8126 39.67 33.8282C39.4165 33.8439 39.1623 33.8094 38.922 33.7268C38.6818 33.6442 38.4602 33.5151 38.2698 33.3468C38.0795 33.1785 37.9241 32.9744 37.8127 32.7461C37.7012 32.5178 37.6358 32.2698 37.6202 32.0163L36.8309 19.2926L17.6913 40.9449C17.3524 41.3283 16.8751 41.5614 16.3643 41.5929C15.8536 41.6243 15.3512 41.4516 14.9678 41.1127C14.5844 40.7738 14.3514 40.2965 14.3199 39.7857C14.2884 39.275 14.4612 38.7726 14.8001 38.3892L33.9397 16.7369L21.2154 17.5152C20.7032 17.5468 20.1996 17.3736 19.8152 17.0338C19.6248 16.8655 19.4695 16.6614 19.358 16.4331C19.2465 16.2048 19.1811 15.9568 19.1655 15.7032C19.1499 15.4496 19.1843 15.1955 19.267 14.9552C19.3496 14.715 19.4787 14.4934 19.6469 14.303C19.9868 13.9186 20.4654 13.6849 20.9775 13.6533L38.3586 12.5827C38.6128 12.566 38.8677 12.5998 39.1088 12.6821C39.3498 12.7644 39.5721 12.8937 39.763 13.0624C39.9538 13.2311 40.1094 13.4359 40.2207 13.665C40.3319 13.8941 40.3968 14.143 40.4114 14.3972Z" fill="white"/>
</svg>
