<svg width="16" height="12" viewBox="0 0 16 12" fill="none" xmlns="http://www.w3.org/2000/svg">
<path d="M15.2864 6.47654L10.1808 11.5821C10.1063 11.6566 10.0179 11.7157 9.92057 11.756C9.82325 11.7963 9.71894 11.8171 9.6136 11.8171C9.50826 11.8171 9.40395 11.7963 9.30663 11.756C9.20931 11.7157 9.12089 11.6566 9.0464 11.5821C8.97191 11.5077 8.91283 11.4192 8.87252 11.3219C8.83221 11.2246 8.81146 11.1203 8.81146 11.0149C8.81146 10.9096 8.83221 10.8053 8.87252 10.708C8.91283 10.6107 8.97191 10.5222 9.0464 10.4477L12.7824 6.70854H0.8C0.587827 6.70854 0.384344 6.62426 0.234315 6.47423C0.0842855 6.3242 0 6.12072 0 5.90854C0 5.69637 0.0842855 5.49289 0.234315 5.34286C0.384344 5.19283 0.587827 5.10854 0.8 5.10854H12.7824L9.0464 1.36934C8.89597 1.21891 8.81146 1.01488 8.81146 0.802142C8.81146 0.696803 8.83221 0.592496 8.87252 0.495175C8.91283 0.397855 8.97191 0.309428 9.0464 0.234942C9.12089 0.160456 9.20931 0.101371 9.30663 0.0610594C9.40395 0.020748 9.50826 0 9.6136 0C9.82634 0 10.0304 0.0845111 10.1808 0.234942L15.2864 5.34054C15.3614 5.41491 15.4209 5.50339 15.4615 5.60088C15.5021 5.69837 15.523 5.80293 15.523 5.90854C15.523 6.01415 15.5021 6.11872 15.4615 6.2162C15.4209 6.31369 15.3614 6.40217 15.2864 6.47654Z" fill="black"/>
</svg>
