<svg width="157" height="157" viewBox="0 0 157 157" fill="none" xmlns="http://www.w3.org/2000/svg">
<path d="M85.7919 16.9487C84.8556 16.8426 84.0086 16.5747 83.2512 16.145C82.5055 15.7167 81.8686 15.1644 81.3407 14.4881C80.8245 13.8131 80.4489 13.0474 80.2141 12.1909C79.9792 11.3344 79.9169 10.4204 80.027 9.44895C80.1371 8.47746 80.3966 7.59997 80.8055 6.81647C81.2275 6.02259 81.7649 5.36036 82.4178 4.82976C83.0837 4.28879 83.8332 3.89955 84.6663 3.66204C85.5007 3.41283 86.3861 3.3413 87.3224 3.44745C88.2588 3.5536 89.0778 3.80648 89.7793 4.20609C90.4926 4.60704 91.0769 5.10005 91.5322 5.68514C91.9888 6.25852 92.2932 6.868 92.4452 7.51355L90.1898 8.27149C90.0183 7.58816 89.6639 7.00265 89.1264 6.51494C88.5902 6.01553 87.9067 5.71872 87.0756 5.62451C86.2563 5.53163 85.5087 5.6425 84.8329 5.9571C84.1688 6.27303 83.6226 6.75053 83.1946 7.38959C82.7782 8.02998 82.5182 8.80666 82.4147 9.71962C82.3112 10.6326 82.3901 11.4536 82.6512 12.1826C82.9254 12.9013 83.3508 13.4889 83.9273 13.9455C84.5156 14.4034 85.2194 14.6788 86.0387 14.7717C86.8697 14.8659 87.6018 14.7355 88.2348 14.3805C88.8691 14.0137 89.3463 13.5166 89.6664 12.889L91.6949 14.1325C91.4022 14.7277 90.9685 15.2594 90.3938 15.7277C89.8204 16.1843 89.1412 16.5282 88.3563 16.7593C87.5831 16.9917 86.7283 17.0549 85.7919 16.9487Z" fill="white"/>
<path d="M97.7208 19.6549C96.8271 19.3559 96.0808 18.8764 95.4818 18.2164C94.8939 17.5602 94.5018 16.8017 94.3053 15.941C94.1199 15.0841 94.1805 14.1976 94.4869 13.2815C94.7934 12.3655 95.2785 11.621 95.9421 11.0481C96.617 10.4789 97.3866 10.1091 98.251 9.93866C99.1154 9.76825 100 9.83439 100.905 10.1371C101.799 10.4361 102.539 10.9137 103.127 11.5699C103.715 12.2262 104.102 12.9828 104.287 13.8397C104.487 14.6893 104.432 15.5776 104.122 16.5048C103.816 17.4208 103.325 18.1635 102.65 18.7327C101.975 19.3019 101.206 19.6717 100.341 19.8421C99.4768 20.0125 98.6033 19.9501 97.7208 19.6549ZM98.3935 17.6441C98.885 17.8085 99.3544 17.8351 99.8015 17.7238C100.26 17.6163 100.664 17.3914 101.015 17.049C101.38 16.6993 101.651 16.2619 101.826 15.7368C102.006 15.2006 102.051 14.6941 101.962 14.2172C101.888 13.7328 101.7 13.3098 101.399 12.9482C101.113 12.5791 100.724 12.3123 100.232 12.1479C99.7295 11.9797 99.2471 11.955 98.7851 12.0737C98.3268 12.1812 97.9168 12.4043 97.5551 12.7429C97.2083 13.074 96.9452 13.5077 96.7658 14.0439C96.5902 14.569 96.5375 15.0792 96.6077 15.5747C96.6929 16.0628 96.8861 16.4877 97.1875 16.8493C97.4888 17.211 97.8908 17.4759 98.3935 17.6441Z" fill="white"/>
<path d="M104.511 22.0091L109.151 13.5911L111.055 14.6403L110.142 16.296L110.149 15.9167C110.624 15.5193 111.154 15.3138 111.74 15.3005C112.342 15.2824 112.942 15.4383 113.54 15.7682C114.159 16.1093 114.632 16.5448 114.959 17.0746C115.296 17.6101 115.465 18.1942 115.465 18.8269C115.472 19.4493 115.302 20.0751 114.955 20.7044L111.97 26.1204L109.943 25.003L112.664 20.0667C112.868 19.6954 112.972 19.3358 112.976 18.9879C112.979 18.6401 112.892 18.3229 112.713 18.0363C112.551 17.7451 112.3 17.5056 111.959 17.318C111.629 17.136 111.293 17.0513 110.949 17.0639C110.612 17.0662 110.297 17.1616 110.005 17.3502C109.712 17.5388 109.464 17.8188 109.259 18.1902L106.538 23.1265L104.511 22.0091Z" fill="white"/>
<path d="M116.881 29.9693C116.014 29.3195 115.516 28.5788 115.389 27.7473C115.277 26.9133 115.547 26.0627 116.196 25.1954L118.739 21.8015L117.41 20.8056L118.649 19.1511L118.791 19.257C119.168 19.5395 119.534 19.6595 119.89 19.6169C120.246 19.5743 120.565 19.3644 120.847 18.9873L121.292 18.3934L123.145 19.7812L121.831 21.5347L123.599 22.859L122.359 24.5135L120.591 23.1893L118.123 26.4842C117.932 26.7387 117.812 26.9873 117.763 27.23C117.723 27.4798 117.762 27.7224 117.88 27.9579C118.007 28.2005 118.222 28.4348 118.524 28.6608C118.59 28.7103 118.669 28.7621 118.76 28.8162C118.862 28.8774 118.958 28.9351 119.05 28.9892L117.864 30.573C117.718 30.493 117.553 30.3989 117.369 30.2906C117.185 30.1823 117.022 30.0752 116.881 29.9693Z" fill="white"/>
<path d="M120.878 33.6552C120.401 33.1822 120.066 32.6921 119.872 32.1847C119.679 31.6773 119.631 31.1819 119.729 30.6984C119.836 30.2066 120.084 29.7642 120.474 29.3712C120.847 28.995 121.263 28.7435 121.72 28.6168C122.186 28.4817 122.694 28.4881 123.245 28.636C123.795 28.7838 124.379 29.0814 124.997 29.5288L127.591 31.3806L126.346 32.6348L124.104 31.0566C123.719 30.7915 123.373 30.6554 123.065 30.6482C122.757 30.6411 122.482 30.7587 122.242 31.0012C122.009 31.2353 121.911 31.5106 121.945 31.8269C121.996 32.1433 122.156 32.4342 122.423 32.6997C122.766 33.0399 123.138 33.2676 123.538 33.3826C123.955 33.4977 124.363 33.4961 124.762 33.378C125.17 33.2681 125.527 33.0585 125.834 32.7492L127.577 30.9933C127.867 30.7007 127.991 30.342 127.948 29.9174C127.921 29.4927 127.719 29.0936 127.343 28.7202C126.992 28.3717 126.583 28.1567 126.116 28.0752C125.666 27.9937 125.225 28.0453 124.793 28.2302L124.098 26.2463C124.588 26.0195 125.104 25.9176 125.646 25.9405C126.204 25.9634 126.754 26.0945 127.297 26.334C127.839 26.5735 128.34 26.9214 128.8 27.3778C129.36 27.9337 129.75 28.5278 129.969 29.16C130.196 29.7838 130.244 30.3959 130.113 30.9961C129.999 31.5963 129.701 32.1388 129.22 32.6238L124.714 37.1639L123.159 35.6206L124.317 34.4542L124.693 34.7776C124.227 34.896 123.773 34.9352 123.331 34.8952C122.898 34.8469 122.473 34.7236 122.055 34.5253C121.646 34.3186 121.254 34.0286 120.878 33.6552Z" fill="white"/>
<path d="M128.732 42.8238C128.179 42.0462 127.858 41.2191 127.77 40.3425C127.698 39.4687 127.843 38.6358 128.204 37.8437C128.576 37.0447 129.15 36.3688 129.928 35.8159C130.706 35.2629 131.528 34.9456 132.395 34.8639C133.262 34.7822 134.091 34.9222 134.883 35.284C135.682 35.6554 136.358 36.2299 136.911 37.0075C137.307 37.5643 137.575 38.1544 137.715 38.7777C137.864 39.3942 137.889 39.9982 137.789 40.5895C137.706 41.1836 137.483 41.7248 137.122 42.2129L135.225 41.0689C135.516 40.645 135.658 40.1749 135.653 39.6587C135.654 39.152 135.497 38.6779 135.183 38.2363C134.89 37.8235 134.526 37.5256 134.092 37.3425C133.665 37.1691 133.21 37.1175 132.725 37.1877C132.24 37.2579 131.767 37.4568 131.306 37.7845C130.845 38.1121 130.502 38.4935 130.277 38.9284C130.051 39.3634 129.95 39.811 129.974 40.2711C130.005 40.7409 130.167 41.1822 130.46 41.595C130.781 42.0462 131.181 42.3544 131.66 42.5197C132.139 42.6851 132.631 42.6964 133.137 42.5537L133.565 44.7421C133.015 44.9025 132.439 44.9362 131.838 44.8432C131.246 44.7434 130.679 44.5252 130.136 44.1885C129.603 43.8451 129.135 43.3901 128.732 42.8238Z" fill="white"/>
<path d="M134.154 51.8875C133.66 50.923 133.538 50.0391 133.789 49.2359C134.055 48.4378 134.67 47.7917 135.635 47.2977L139.409 45.3644L138.652 43.8861L140.492 42.9437L140.572 43.1009C140.787 43.5203 141.064 43.7889 141.402 43.9068C141.74 44.0247 142.119 43.9762 142.539 43.7614L143.199 43.4231L144.254 45.4833L142.304 46.4821L143.311 48.4479L141.471 49.3904L140.464 47.4246L136.8 49.3014C136.517 49.4464 136.3 49.6171 136.149 49.8135C136.004 50.0204 135.932 50.2555 135.935 50.5189C135.943 50.7928 136.032 51.0975 136.204 51.433C136.242 51.5064 136.29 51.5875 136.349 51.6765C136.413 51.776 136.475 51.8702 136.533 51.9592L134.772 52.8614C134.676 52.7254 134.569 52.5684 134.451 52.3904C134.334 52.2124 134.235 52.0448 134.154 51.8875Z" fill="white"/>
<path d="M136.737 57.3788L149.467 54.03L149.944 55.8413L142.354 65.3287L141.919 64.4383L151.54 61.9076L152.151 64.2316L139.42 67.5804L138.939 65.752L146.624 56.3491L147.037 57.1541L137.348 59.7028L136.737 57.3788Z" fill="white"/>
<path d="M139.804 74.9029C139.752 73.962 139.923 73.0914 140.315 72.2913C140.709 71.503 141.269 70.8589 141.997 70.359C142.725 69.8708 143.572 69.6004 144.536 69.5476C145.501 69.4948 146.372 69.6713 147.149 70.0771C147.927 70.4947 148.554 71.0738 149.031 71.8145C149.508 72.5552 149.773 73.402 149.825 74.3547C149.876 75.2956 149.705 76.1603 149.312 76.9486C148.919 77.737 148.358 78.3752 147.629 78.8633C146.914 79.3626 146.067 79.6389 145.091 79.6923C144.127 79.7451 143.256 79.5627 142.478 79.1452C141.7 78.7276 141.072 78.1485 140.595 77.4078C140.118 76.6671 139.854 75.8321 139.804 74.9029ZM141.921 74.7871C141.949 75.3046 142.097 75.7507 142.366 76.1253C142.634 76.5117 142.993 76.8048 143.44 77.0044C143.9 77.2152 144.406 77.3055 144.959 77.2752C145.524 77.2444 146.011 77.0997 146.422 76.8413C146.845 76.594 147.169 76.2637 147.394 75.8502C147.631 75.4479 147.736 74.988 147.708 74.4705C147.679 73.9412 147.524 73.4837 147.243 73.0979C146.974 72.7115 146.616 72.4126 146.168 72.2012C145.732 72.0009 145.232 71.9162 144.667 71.9471C144.115 71.9773 143.621 72.1164 143.186 72.3643C142.764 72.6234 142.44 72.9596 142.215 73.373C141.99 73.7864 141.892 74.2578 141.921 74.7871Z" fill="white"/>
<path d="M139.898 84.473L149.908 82.7054L149.528 85.1141L141.943 86.3693L142.092 85.5342L148.882 89.2157L148.563 91.2404L140.973 92.638L141.087 91.7974L147.919 95.3246L147.54 97.7333L138.559 92.9731L138.881 90.931L146.811 89.5333L146.689 90.3012L139.579 86.4976L139.898 84.473Z" fill="white"/>
<path d="M141.601 103.819L143.107 102.915L144.226 104.778L145.643 103.167L146.966 104.311L145.565 105.929L147.653 106.798L146.974 108.429L144.886 107.56L144.725 109.694L142.981 109.561L143.126 107.42L141.015 107.939L140.603 106.217L142.713 105.698L141.601 103.819Z" fill="white"/>
<path d="M127.75 115.043C128.303 114.28 128.954 113.676 129.701 113.228C130.442 112.791 131.236 112.509 132.085 112.383C132.926 112.266 133.778 112.317 134.639 112.535C135.5 112.753 136.326 113.149 137.117 113.724C137.908 114.299 138.543 114.957 139.023 115.699C139.506 116.457 139.817 117.251 139.957 118.081C140.099 118.927 140.069 119.771 139.865 120.613C139.67 121.462 139.296 122.267 138.742 123.03C138.188 123.792 137.564 124.38 136.871 124.793C136.17 125.216 135.453 125.482 134.72 125.589C133.996 125.704 133.316 125.668 132.679 125.482L133.131 123.147C133.81 123.334 134.495 123.314 135.184 123.087C135.883 122.867 136.478 122.418 136.969 121.742C137.454 121.075 137.726 120.37 137.786 119.627C137.838 118.893 137.692 118.182 137.347 117.495C136.995 116.817 136.447 116.208 135.704 115.668C134.961 115.128 134.208 114.792 133.445 114.66C132.684 114.544 131.963 114.624 131.282 114.901C130.593 115.187 130.007 115.663 129.522 116.331C129.03 117.007 128.783 117.708 128.78 118.434C128.786 119.167 128.984 119.827 129.372 120.415L127.29 121.567C126.916 121.019 126.668 120.379 126.543 119.648C126.429 118.924 126.464 118.164 126.65 117.367C126.829 116.58 127.196 115.805 127.75 115.043Z" fill="white"/>
<path d="M119.513 124.105C120.212 123.473 120.997 123.059 121.866 122.861C122.726 122.672 123.579 122.703 124.426 122.954C125.263 123.214 126.006 123.702 126.653 124.419C127.3 125.136 127.71 125.924 127.883 126.784C128.048 127.651 127.992 128.503 127.715 129.34C127.439 130.176 126.947 130.914 126.239 131.554C125.539 132.185 124.759 132.596 123.899 132.786C123.039 132.975 122.19 132.94 121.352 132.681C120.514 132.438 119.767 131.953 119.112 131.228C118.465 130.511 118.059 129.719 117.895 128.851C117.73 127.984 117.786 127.132 118.063 126.295C118.339 125.459 118.822 124.728 119.513 124.105ZM120.934 125.679C120.549 126.026 120.295 126.422 120.173 126.866C120.041 127.318 120.039 127.78 120.164 128.254C120.29 128.744 120.538 129.195 120.909 129.606C121.288 130.025 121.707 130.313 122.166 130.47C122.624 130.644 123.084 130.688 123.548 130.603C124.01 130.535 124.433 130.327 124.818 129.98C125.211 129.625 125.47 129.217 125.593 128.756C125.725 128.304 125.732 127.837 125.615 127.356C125.497 126.891 125.248 126.449 124.869 126.029C124.498 125.619 124.08 125.322 123.614 125.14C123.147 124.974 122.682 124.934 122.219 125.019C121.756 125.103 121.327 125.323 120.934 125.679Z" fill="white"/>
<path d="M114.124 128.869L119.189 137.038L117.342 138.183L116.345 136.577L116.672 136.769C116.786 137.377 116.706 137.94 116.43 138.457C116.151 138.991 115.721 139.438 115.141 139.798C114.54 140.17 113.929 140.369 113.307 140.394C112.675 140.425 112.083 140.287 111.531 139.977C110.985 139.678 110.523 139.223 110.144 138.613L106.885 133.357L108.853 132.137L111.823 136.927C112.046 137.288 112.309 137.555 112.61 137.728C112.912 137.902 113.231 137.981 113.568 137.966C113.902 137.967 114.234 137.865 114.564 137.66C114.884 137.462 115.123 137.21 115.28 136.904C115.444 136.609 115.515 136.288 115.494 135.94C115.472 135.593 115.35 135.239 115.127 134.879L112.156 130.089L114.124 128.869Z" fill="white"/>
<path d="M101.106 135.758C102.097 135.321 102.987 135.251 103.774 135.548C104.555 135.86 105.164 136.512 105.601 137.504L107.311 141.385L108.831 140.715L109.665 142.607L109.503 142.678C109.072 142.868 108.787 143.129 108.65 143.459C108.512 143.79 108.539 144.171 108.729 144.603L109.028 145.282L106.91 146.215L106.026 144.21L104.005 145.1L103.172 143.209L105.193 142.318L103.533 138.551C103.405 138.259 103.247 138.033 103.06 137.871C102.862 137.714 102.631 137.628 102.368 137.616C102.094 137.608 101.785 137.68 101.44 137.832C101.364 137.865 101.28 137.908 101.188 137.962C101.085 138.02 100.988 138.076 100.895 138.129L100.097 136.318C100.239 136.23 100.402 136.133 100.586 136.026C100.771 135.919 100.944 135.83 101.106 135.758Z" fill="white"/>
<path d="M95.9522 137.42C96.5985 137.237 97.19 137.187 97.727 137.268C98.2639 137.349 98.7187 137.551 99.0914 137.874C99.4673 138.209 99.7304 138.643 99.8807 139.175C100.025 139.686 100.039 140.171 99.9244 140.632C99.8128 141.104 99.5573 141.543 99.1579 141.95C98.7585 142.356 98.212 142.718 97.5184 143.036L94.6305 144.383L94.1508 142.683L96.6279 141.507C97.0477 141.303 97.3365 141.068 97.4943 140.803C97.6521 140.538 97.6847 140.242 97.5919 139.913C97.5024 139.595 97.3114 139.374 97.0189 139.248C96.7183 139.137 96.3866 139.133 96.0239 139.235C95.559 139.366 95.1781 139.578 94.881 139.87C94.5758 140.176 94.3764 140.532 94.2828 140.938C94.1779 141.347 94.1846 141.761 94.3029 142.181L94.9746 144.562C95.0865 144.959 95.338 145.243 95.729 145.414C96.1118 145.599 96.5583 145.62 97.0685 145.476C97.5447 145.342 97.933 145.092 98.2336 144.726C98.526 144.374 98.6981 143.964 98.7498 143.497L100.819 143.868C100.775 144.406 100.61 144.906 100.324 145.366C100.029 145.841 99.6443 146.255 99.169 146.61C98.6938 146.964 98.1443 147.229 97.5208 147.405C96.7612 147.619 96.0523 147.666 95.3942 147.546C94.7392 147.437 94.1827 147.178 93.7245 146.769C93.2582 146.374 92.9323 145.848 92.7468 145.19L91.0101 139.034L93.1189 138.439L93.565 140.021L93.0984 140.189C93.2246 139.725 93.4137 139.311 93.6657 138.946C93.9209 138.592 94.2375 138.283 94.6153 138.017C94.9964 137.763 95.4421 137.564 95.9522 137.42Z" fill="white"/>
<path d="M84.1236 139.736C85.0727 139.638 85.9505 139.767 86.7568 140.122C87.5526 140.49 88.2059 141.026 88.7168 141.732C89.2288 142.448 89.5338 143.282 89.6316 144.231C89.7294 145.18 89.6002 146.052 89.2439 146.846C88.8877 147.641 88.3569 148.294 87.6517 148.804C86.9347 149.316 86.1017 149.621 85.1526 149.719C84.473 149.789 83.8275 149.731 83.2163 149.546C82.6063 149.372 82.0686 149.096 81.6033 148.717C81.1275 148.352 80.7662 147.892 80.5196 147.337L82.4503 146.25C82.6755 146.712 83.0142 147.068 83.4662 147.317C83.9065 147.568 84.3962 147.666 84.9352 147.61C85.439 147.558 85.8775 147.389 86.2505 147.101C86.6118 146.816 86.8815 146.444 87.0594 145.988C87.2374 145.531 87.2974 145.022 87.2394 144.459C87.1814 143.897 87.0188 143.41 86.7515 143C86.4841 142.589 86.1445 142.281 85.7324 142.075C85.3087 141.87 84.8449 141.793 84.341 141.845C83.7903 141.902 83.325 142.098 82.945 142.433C82.5651 142.768 82.3126 143.191 82.1876 143.701L80.0721 142.996C80.204 142.437 80.4586 141.92 80.8357 141.442C81.2141 140.977 81.6835 140.591 82.244 140.285C82.8058 139.99 83.4323 139.807 84.1236 139.736Z" fill="white"/>
<path d="M73.4515 139.989C74.5343 140.034 75.3635 140.364 75.939 140.977C76.5022 141.602 76.7611 142.456 76.7156 143.539L76.5376 147.776L78.197 147.846L78.1102 149.911L77.9337 149.904C77.4629 149.884 77.0929 149.992 76.8236 150.228C76.5543 150.465 76.4097 150.818 76.39 151.289L76.3588 152.03L74.0462 151.933L74.1381 149.744L71.9314 149.651L72.0182 147.586L74.2249 147.679L74.3977 143.565C74.4111 143.248 74.3695 142.975 74.273 142.747C74.1647 142.518 73.9953 142.34 73.7649 142.212C73.5227 142.084 73.2132 142.012 72.8366 141.996C72.7542 141.993 72.6598 141.995 72.5534 142.002C72.4352 142.009 72.3229 142.016 72.2165 142.023L72.2996 140.046C72.4654 140.03 72.6547 140.014 72.8675 139.999C73.0803 139.985 73.275 139.981 73.4515 139.989Z" fill="white"/>
<path d="M67.4011 139.536L64.0582 152.269L62.2466 151.793L57.7166 140.519L58.7059 140.578L56.1796 150.2L53.8553 149.59L57.1983 136.858L59.0269 137.338L63.4365 148.653L62.5326 148.616L65.0768 138.926L67.4011 139.536Z" fill="white"/>
<path d="M50.6282 133.583C51.4724 134.002 52.1458 134.579 52.6485 135.315C53.1406 136.046 53.4249 136.851 53.5013 137.731C53.5672 138.605 53.3854 139.475 52.9561 140.34C52.5267 141.206 51.944 141.876 51.2079 142.353C50.4613 142.824 49.6482 143.084 48.7686 143.134C47.889 143.185 47.0218 142.998 46.1671 142.573C45.3229 142.155 44.6548 141.58 44.1627 140.849C43.6705 140.118 43.3915 139.316 43.3257 138.441C43.244 137.572 43.4205 136.7 43.8551 135.824C44.2844 134.959 44.8724 134.291 45.619 133.82C46.3657 133.348 47.1788 133.088 48.0584 133.038C48.938 132.988 49.7946 133.17 50.6282 133.583ZM49.6857 135.483C49.2214 135.252 48.7602 135.161 48.302 135.21C47.8333 135.254 47.4019 135.421 47.0076 135.712C46.5976 136.008 46.2696 136.404 46.0235 136.9C45.7721 137.407 45.6578 137.902 45.6803 138.387C45.687 138.877 45.8148 139.321 46.0636 139.721C46.2967 140.126 46.6453 140.444 47.1096 140.674C47.5844 140.91 48.0588 141 48.5328 140.946C49.0015 140.903 49.4382 140.738 49.843 140.452C50.232 140.172 50.5522 139.779 50.8035 139.272C51.0496 138.776 51.1719 138.278 51.1704 137.777C51.1531 137.282 51.02 136.835 50.7712 136.435C50.5224 136.036 50.1606 135.718 49.6857 135.483Z" fill="white"/>
<path d="M42.3408 128.994L38.9434 138.574L37.035 137.056L39.6831 129.838L40.3358 130.38L33.7853 134.471L32.1812 133.196L34.7076 125.903L35.3824 126.417L28.9453 130.622L27.0369 129.104L35.6063 123.638L37.2242 124.925L34.5303 132.513L33.9219 132.029L40.7367 127.719L42.3408 128.994Z" fill="white"/>
<path d="M24.6563 120.947L24.705 122.703L22.5324 122.763L23.2403 124.788L21.5942 125.379L20.8724 123.365L19.0901 124.757L18.0023 123.365L19.7846 121.972L18.0046 120.784L18.9762 119.33L20.7702 120.507L21.3546 118.414L23.0573 118.9L22.4728 120.993L24.6563 120.947Z" fill="white"/>
<path d="M21.6717 103.379C22.0644 104.235 22.2723 105.099 22.2955 105.969C22.3138 106.829 22.1697 107.66 21.8632 108.461C21.5518 109.252 21.09 109.969 20.4779 110.612C19.8657 111.256 19.1153 111.781 18.2265 112.188C17.3377 112.596 16.4522 112.827 15.5701 112.881C14.6724 112.93 13.8278 112.812 13.0362 112.526C12.2291 112.236 11.5087 111.795 10.8751 111.204C10.2308 110.618 9.71234 109.897 9.31967 109.04C8.92701 108.184 8.72063 107.352 8.70054 106.545C8.67553 105.727 8.79598 104.972 9.06189 104.28C9.31709 103.593 9.68183 103.017 10.1561 102.554L11.9699 104.094C11.4733 104.593 11.155 105.199 11.0149 105.911C10.8641 106.628 10.9629 107.367 11.3114 108.127C11.655 108.877 12.136 109.46 12.7544 109.876C13.3679 110.282 14.0589 110.503 14.8272 110.539C15.5906 110.565 16.3899 110.387 17.2252 110.004C18.0604 109.621 18.7228 109.13 19.2122 108.529C19.6861 107.923 19.9696 107.256 20.0628 106.526C20.1512 105.786 20.0235 105.041 19.68 104.292C19.3315 103.531 18.8418 102.972 18.2109 102.613C17.5692 102.259 16.8971 102.107 16.1943 102.157L16.2117 99.778C16.8725 99.7213 17.5518 99.8181 18.2496 100.068C18.9367 100.324 19.5819 100.728 20.1852 101.28C20.7835 101.823 21.279 102.522 21.6717 103.379Z" fill="white"/>
<path d="M17.8273 91.7411C18.032 92.661 18.0061 93.5477 17.7496 94.4013C17.4905 95.2434 17.0429 95.9705 16.4069 96.5827C15.7682 97.1835 14.9775 97.5888 14.0346 97.7986C13.0918 98.0085 12.2038 97.9769 11.3706 97.7037C10.5349 97.4191 9.82119 96.9504 9.22941 96.2977C8.63762 95.645 8.23807 94.853 8.03077 93.9217C7.82603 93.0018 7.85319 92.1208 8.11227 91.2788C8.37135 90.4367 8.82021 89.7153 9.45884 89.1145C10.0834 88.5049 10.8729 88.0938 11.8272 87.8814C12.7701 87.6716 13.6594 87.7089 14.4951 87.9936C15.3308 88.2782 16.0445 88.7469 16.6363 89.3996C17.2281 90.0523 17.6251 90.8328 17.8273 91.7411ZM15.7576 92.2018C15.645 91.6959 15.4257 91.2801 15.0998 90.9544C14.7713 90.6172 14.37 90.3867 13.896 90.2629C13.4079 90.1302 12.8936 90.124 12.3532 90.2443C11.8013 90.3671 11.3439 90.5896 10.9812 90.9117C10.6044 91.2249 10.3387 91.6038 10.1843 92.0485C10.0158 92.4842 9.98784 92.9551 10.1004 93.461C10.2156 93.9784 10.4432 94.4044 10.7832 94.7391C11.1116 95.0763 11.5142 95.3125 11.9908 95.4478C12.4534 95.5741 12.9606 95.5758 13.5125 95.453C14.0529 95.3327 14.5173 95.1147 14.9056 94.799C15.2799 94.4743 15.5442 94.0897 15.6987 93.645C15.8531 93.2003 15.8727 92.7192 15.7576 92.2018Z" fill="white"/>
<path d="M16.3434 84.7228L6.73874 85.1024L6.65291 82.9308L8.54206 82.8561L8.21359 83.0459C7.628 82.8451 7.17807 82.4974 6.86381 82.0029C6.53731 81.4971 6.36057 80.9028 6.33359 80.2202C6.30568 79.5139 6.43404 78.8841 6.71867 78.3305C7.00284 77.7652 7.41548 77.3186 7.9566 76.9907C8.48594 76.6633 9.10961 76.4854 9.82761 76.457L16.0071 76.2128L16.0985 78.5257L10.4663 78.7483C10.0426 78.765 9.68098 78.8618 9.38146 79.0387C9.08194 79.2156 8.8556 79.4544 8.70245 79.7552C8.53705 80.0447 8.46203 80.3836 8.47738 80.772C8.49227 81.1487 8.59381 81.4807 8.78199 81.7679C8.95841 82.0557 9.20289 82.2759 9.51543 82.4286C9.82797 82.5813 10.1961 82.6493 10.6198 82.6325L16.252 82.4099L16.3434 84.7228Z" fill="white"/>
<path d="M16.765 69.9076C16.6571 70.986 16.2802 71.7947 15.6343 72.3338C14.9779 72.86 14.1105 73.0692 13.0321 72.9612L8.81257 72.5389L8.64716 74.1916L6.59012 73.9857L6.60771 73.8099C6.65464 73.341 6.56793 72.9654 6.3476 72.6829C6.12727 72.4004 5.78268 72.2357 5.31384 72.1887L4.57541 72.1148L4.80593 69.8116L6.98605 70.0298L7.20601 67.8322L9.26305 68.038L9.04309 70.2357L13.1396 70.6457C13.4561 70.6774 13.7309 70.6517 13.9642 70.5685C14.1986 70.4735 14.3862 70.3147 14.5268 70.092C14.6687 69.8576 14.7584 69.5529 14.7959 69.1778C14.8041 69.0958 14.8077 69.0014 14.8065 68.8947C14.8065 68.7764 14.8059 68.6638 14.8048 68.5572L16.7739 68.7543C16.7809 68.9207 16.7856 69.1106 16.7879 69.3239C16.7902 69.5372 16.7826 69.7318 16.765 69.9076Z" fill="white"/>
<path d="M17.8508 64.6132C17.6919 65.2656 17.4451 65.8056 17.1106 66.2333C16.776 66.661 16.3764 66.9577 15.9117 67.1233C15.4355 67.2861 14.9285 67.302 14.3906 67.171C13.8756 67.0455 13.4457 66.8195 13.1009 66.493C12.7446 66.1637 12.4877 65.7253 12.3302 65.1777C12.1726 64.6301 12.1258 63.9761 12.1898 63.2157L12.4365 60.0387L14.1532 60.457L13.9596 63.1923C13.931 63.6582 13.9932 64.0249 14.1462 64.2926C14.2992 64.5602 14.5417 64.7345 14.8736 64.8153C15.1941 64.8934 15.4808 64.836 15.734 64.643C15.9784 64.4359 16.1453 64.1492 16.2345 63.7829C16.3488 63.3137 16.3519 62.878 16.2438 62.4758C16.127 62.0594 15.915 61.7106 15.6076 61.4296C15.303 61.1372 14.939 60.9394 14.5155 60.8362L12.1121 60.2506C11.7115 60.153 11.3406 60.2324 10.9993 60.4887C10.6493 60.7308 10.4116 61.1093 10.2861 61.6244C10.169 62.105 10.196 62.5663 10.3673 63.0081C10.5298 63.4357 10.8019 63.7869 11.1835 64.0617L9.84328 65.6811C9.39577 65.3781 9.04203 64.9888 8.78205 64.5132C8.51341 64.0234 8.34162 63.4845 8.26667 62.8964C8.19172 62.3083 8.23093 61.6995 8.3843 61.0701C8.57112 60.3033 8.8787 59.6629 9.30704 59.1489C9.72392 58.6321 10.2232 58.2749 10.8048 58.0771C11.3778 57.8651 11.9962 57.84 12.66 58.0017L18.8746 59.5159L18.3559 61.6446L16.7593 61.2556L16.8421 60.7666C17.1841 61.1045 17.452 61.4729 17.6459 61.8717C17.8282 62.2677 17.9422 62.6956 17.9878 63.1553C18.022 63.6122 17.9763 64.0982 17.8508 64.6132Z" fill="white"/>
<path d="M21.6545 53.1666C21.2724 54.0409 20.7284 54.7416 20.0224 55.2687C19.3104 55.7802 18.5217 56.0848 17.6563 56.1822C16.7802 56.275 15.905 56.1304 15.0307 55.7483C14.1564 55.3662 13.4611 54.8245 12.9448 54.1233C12.4285 53.422 12.1216 52.6387 12.0241 51.7734C11.9314 50.8972 12.076 50.022 12.4581 49.1477C12.7317 48.5216 13.0998 47.9883 13.5623 47.5477C14.014 47.1023 14.5191 46.7702 15.0775 46.5515C15.6298 46.3172 16.2081 46.2293 16.8125 46.2877L16.8084 48.5034C16.2951 48.4719 15.8186 48.5915 15.3789 48.8622C14.944 49.122 14.618 49.5002 14.401 49.9968C14.1982 50.4609 14.1299 50.926 14.1962 51.392C14.2672 51.8473 14.4576 52.2647 14.7673 52.6443C15.0771 53.024 15.491 53.327 16.0091 53.5534C16.5272 53.7798 17.0308 53.8777 17.5198 53.8472C18.0088 53.8166 18.4445 53.6728 18.8268 53.4156C19.2138 53.1477 19.5088 52.7817 19.7116 52.3175C19.9333 51.8102 19.9918 51.3087 19.887 50.813C19.7823 50.3173 19.5386 49.8894 19.156 49.5294L20.8116 48.0354C21.2327 48.4251 21.558 48.9015 21.7876 49.4646C22.0063 50.023 22.1111 50.6215 22.1019 51.2603C22.082 51.8943 21.9328 52.5298 21.6545 53.1666Z" fill="white"/>
<path d="M26.6497 43.8378C26.0764 44.7574 25.3809 45.3163 24.5633 45.5146C23.7419 45.6965 22.8714 45.5009 21.9517 44.9275L18.3531 42.684L17.4744 44.0935L15.7201 42.9998L15.8136 42.8498C16.0629 42.45 16.1511 42.0747 16.0783 41.7239C16.0055 41.3731 15.7691 41.0731 15.3693 40.8238L14.7395 40.4312L15.9641 38.4669L17.8234 39.6261L18.9919 37.7518L20.7462 38.8455L19.5777 40.7198L23.0713 42.8978C23.3412 43.0661 23.5992 43.1645 23.8452 43.1929C24.0974 43.2113 24.3359 43.1518 24.5605 43.0142C24.7913 42.8666 25.0064 42.6328 25.2058 42.313C25.2495 42.243 25.2943 42.1599 25.3404 42.0637C25.3927 41.9575 25.4419 41.8563 25.488 41.7601L27.1674 42.8071C27.1001 42.9595 27.0204 43.1319 26.9282 43.3243C26.836 43.5167 26.7432 43.6878 26.6497 43.8378Z" fill="white"/>
<path d="M30.0301 38.7983L20.5923 29.6217L21.8979 28.2789L33.941 29.8842L33.4029 30.7165L26.2707 23.7817L27.9458 22.0588L37.3837 31.2354L36.0657 32.5909L24.0459 30.8603L24.5224 30.0914L31.7053 37.0755L30.0301 38.7983Z" fill="white"/>
<path d="M43.4627 27.1126C42.6838 27.643 41.8504 27.9468 40.9624 28.0241C40.0842 28.0948 39.2431 27.9478 38.4391 27.5832C37.6448 27.212 36.9758 26.6272 36.4322 25.8288C35.8885 25.0303 35.5896 24.1936 35.5353 23.3185C35.4907 22.4368 35.6622 21.6003 36.0498 20.8091C36.4374 20.0179 37.0256 19.3538 37.8142 18.8168C38.5932 18.2865 39.4218 17.9859 40.3 17.9153C41.1781 17.8446 42.0144 17.9949 42.8087 18.3661C43.6061 18.721 44.2799 19.3025 44.8302 20.1106C45.3738 20.9091 45.6679 21.7491 45.7125 22.6308C45.7571 23.5126 45.5856 24.349 45.198 25.1402C44.8104 25.9314 44.232 26.5889 43.4627 27.1126ZM42.2694 25.36C42.6978 25.0683 43.0031 24.7108 43.1852 24.2875C43.377 23.8577 43.4428 23.3996 43.3825 22.9134C43.3253 22.4108 43.1409 21.9307 42.8293 21.473C42.5111 21.0057 42.1352 20.663 41.7018 20.4451C41.2715 20.2108 40.8212 20.1041 40.351 20.125C39.8838 20.1296 39.436 20.2778 39.0076 20.5695C38.5694 20.8678 38.2578 21.2368 38.0726 21.6764C37.8807 22.1063 37.8101 22.5677 37.8607 23.0605C37.9143 23.537 38.1003 24.0089 38.4185 24.4763C38.7301 24.9339 39.1044 25.2848 39.5413 25.5288C39.9813 25.7565 40.4365 25.8598 40.9068 25.8389C41.377 25.818 41.8312 25.6583 42.2694 25.36Z" fill="white"/>
<path d="M51.5277 22.1355L44.8494 14.4731L47.1086 13.5556L52.0973 19.4058L51.3049 19.7086L50.9557 11.9931L52.8547 11.2218L57.9678 17.0025L57.1886 17.338L56.6854 9.666L58.9446 8.74846L59.5003 18.8975L57.5849 19.6754L52.2963 13.6036L53.0167 13.3111L53.4267 21.3642L51.5277 22.1355Z" fill="white"/>
<path d="M67.2194 10.6972L65.6679 9.87391L66.6865 7.95397L64.5753 7.57118L64.8728 5.84776L66.9814 6.21307L66.6488 3.97598L68.3966 3.71613L68.7292 5.95322L70.6403 4.99026L71.4264 6.55257L69.5178 7.53301L71.0509 9.07357L69.7886 10.3152L68.2555 8.77465L67.2194 10.6972Z" fill="white"/>
</svg>
