<svg width="174" height="174" viewBox="0 0 174 174" fill="none" xmlns="http://www.w3.org/2000/svg">
<path d="M174 87C174 135.049 135.049 174 87 174C38.9512 174 0 135.049 0 87C0 38.9512 38.9512 0 87 0C135.049 0 174 38.9512 174 87Z" fill="black"/>
<path d="M93.79 25.9487C92.8536 25.8426 92.0067 25.5747 91.2493 25.145C90.5035 24.7167 89.8667 24.1644 89.3387 23.4881C88.8225 22.8131 88.447 22.0474 88.2121 21.1909C87.9773 20.3344 87.9149 19.4204 88.025 18.4489C88.1352 17.4775 88.3947 16.6 88.8036 15.8165C89.2255 15.0226 89.7629 14.3604 90.4158 13.8298C91.0818 13.2888 91.8313 12.8995 92.6643 12.662C93.4987 12.4128 94.3841 12.3413 95.3205 12.4474C96.2568 12.5536 97.0758 12.8065 97.7774 13.2061C98.4907 13.607 99.0749 14.1001 99.5302 14.6851C99.9869 15.2585 100.291 15.868 100.443 16.5136L98.1879 17.2715C98.0164 16.5882 97.6619 16.0026 97.1244 15.5149C96.5883 15.0155 95.9047 14.7187 95.0737 14.6245C94.2544 14.5316 93.5068 14.6425 92.8309 14.9571C92.1668 15.273 91.6207 15.7505 91.1926 16.3896C90.7762 17.03 90.5163 17.8067 90.4128 18.7196C90.3093 19.6326 90.3881 20.4536 90.6493 21.1826C90.9234 21.9013 91.3488 22.4889 91.9254 22.9455C92.5136 23.4034 93.2174 23.6788 94.0368 23.7717C94.8678 23.8659 95.5998 23.7355 96.2328 23.3805C96.8671 23.0137 97.3443 22.5166 97.6644 21.889L99.6929 23.1325C99.4002 23.7277 98.9665 24.2594 98.3918 24.7277C97.8184 25.1843 97.1393 25.5282 96.3544 25.7593C95.5811 25.9917 94.7263 26.0549 93.79 25.9487Z" fill="white"/>
<path d="M105.719 28.6549C104.825 28.3559 104.079 27.8764 103.48 27.2164C102.892 26.5602 102.5 25.8017 102.303 24.941C102.118 24.0841 102.179 23.1976 102.485 22.2815C102.791 21.3655 103.277 20.621 103.94 20.0481C104.615 19.4789 105.385 19.1091 106.249 18.9387C107.113 18.7682 107.998 18.8344 108.903 19.1371C109.797 19.4361 110.537 19.9137 111.125 20.5699C111.713 21.2262 112.1 21.9828 112.285 22.8397C112.485 23.6893 112.43 24.5776 112.12 25.5048C111.814 26.4208 111.323 27.1635 110.648 27.7327C109.973 28.3019 109.204 28.6717 108.339 28.8421C107.475 29.0125 106.601 28.9501 105.719 28.6549ZM106.392 26.6441C106.883 26.8085 107.352 26.8351 107.8 26.7238C108.258 26.6163 108.662 26.3914 109.013 26.049C109.378 25.6993 109.649 25.2619 109.824 24.7368C110.004 24.2006 110.049 23.6941 109.96 23.2172C109.886 22.7328 109.699 22.3098 109.397 21.9482C109.111 21.5791 108.722 21.3123 108.23 21.1479C107.728 20.9797 107.245 20.955 106.783 21.0737C106.325 21.1812 105.915 21.4043 105.553 21.7429C105.206 22.074 104.943 22.5077 104.764 23.0439C104.588 23.569 104.536 24.0792 104.606 24.5747C104.691 25.0628 104.884 25.4877 105.186 25.8493C105.487 26.211 105.889 26.4759 106.392 26.6441Z" fill="white"/>
<path d="M112.509 31.0091L117.149 22.5911L119.053 23.6403L118.14 25.296L118.147 24.9167C118.622 24.5193 119.152 24.3138 119.738 24.3005C120.34 24.2824 120.94 24.4383 121.538 24.7682C122.157 25.1093 122.63 25.5448 122.957 26.0746C123.294 26.6101 123.463 27.1942 123.464 27.8269C123.47 28.4493 123.3 29.0751 122.953 29.7044L119.968 35.1204L117.941 34.003L120.662 29.0667C120.866 28.6954 120.97 28.3358 120.974 27.9879C120.977 27.6401 120.89 27.3229 120.712 27.0363C120.549 26.7451 120.298 26.5056 119.957 26.318C119.627 26.136 119.291 26.0513 118.947 26.0639C118.61 26.0662 118.295 26.1616 118.003 26.3502C117.711 26.5388 117.462 26.8188 117.257 27.1902L114.536 32.1265L112.509 31.0091Z" fill="white"/>
<path d="M124.879 38.9693C124.012 38.3195 123.514 37.5788 123.387 36.7473C123.275 35.9133 123.545 35.0627 124.194 34.1954L126.737 30.8015L125.408 29.8056L126.647 28.1511L126.789 28.257C127.166 28.5395 127.532 28.6595 127.888 28.6169C128.244 28.5743 128.563 28.3644 128.845 27.9873L129.29 27.3934L131.143 28.7812L129.829 30.5347L131.597 31.859L130.357 33.5135L128.59 32.1893L126.121 35.4842C125.93 35.7387 125.81 35.9873 125.761 36.23C125.721 36.4798 125.76 36.7224 125.878 36.9579C126.005 37.2005 126.22 37.4348 126.522 37.6608C126.588 37.7103 126.667 37.7621 126.758 37.8162C126.86 37.8774 126.956 37.9351 127.048 37.9892L125.862 39.573C125.716 39.493 125.551 39.3989 125.367 39.2906C125.183 39.1823 125.021 39.0752 124.879 38.9693Z" fill="white"/>
<path d="M128.876 42.6552C128.399 42.1822 128.064 41.6921 127.87 41.1847C127.677 40.6773 127.629 40.1819 127.727 39.6984C127.834 39.2066 128.082 38.7642 128.472 38.3712C128.845 37.995 129.261 37.7435 129.718 37.6168C130.184 37.4817 130.693 37.4881 131.243 37.636C131.793 37.7838 132.377 38.0814 132.995 38.5288L135.589 40.3806L134.344 41.6348L132.102 40.0566C131.718 39.7915 131.371 39.6554 131.063 39.6482C130.755 39.6411 130.48 39.7587 130.24 40.0012C130.008 40.2353 129.909 40.5106 129.943 40.8269C129.994 41.1433 130.154 41.4342 130.421 41.6997C130.764 42.0399 131.136 42.2676 131.536 42.3826C131.953 42.4977 132.361 42.4961 132.76 42.378C133.168 42.2681 133.525 42.0585 133.832 41.7492L135.575 39.9933C135.865 39.7007 135.989 39.342 135.946 38.9174C135.919 38.4927 135.718 38.0936 135.341 37.7202C134.99 37.3717 134.581 37.1567 134.114 37.0752C133.664 36.9937 133.223 37.0453 132.791 37.2302L132.096 35.2463C132.586 35.0195 133.102 34.9176 133.644 34.9405C134.202 34.9634 134.752 35.0945 135.295 35.334C135.837 35.5735 136.338 35.9214 136.798 36.3778C137.358 36.9337 137.748 37.5278 137.967 38.16C138.194 38.7838 138.242 39.3959 138.111 39.9961C137.997 40.5963 137.699 41.1388 137.218 41.6238L132.712 46.1639L131.157 44.6206L132.315 43.4542L132.691 43.7776C132.225 43.896 131.771 43.9352 131.329 43.8952C130.896 43.8469 130.471 43.7236 130.053 43.5253C129.644 43.3186 129.252 43.0286 128.876 42.6552Z" fill="white"/>
<path d="M136.73 51.8238C136.177 51.0462 135.856 50.2191 135.768 49.3425C135.696 48.4687 135.841 47.6358 136.203 46.8437C136.574 46.0447 137.148 45.3688 137.926 44.8159C138.704 44.2629 139.526 43.9456 140.393 43.8639C141.26 43.7822 142.089 43.9222 142.881 44.284C143.68 44.6554 144.356 45.2299 144.909 46.0075C145.305 46.5643 145.573 47.1544 145.713 47.7777C145.862 48.3942 145.887 48.9982 145.787 49.5895C145.704 50.1836 145.481 50.7248 145.12 51.2129L143.223 50.0689C143.514 49.645 143.656 49.1749 143.651 48.6587C143.652 48.152 143.495 47.6779 143.181 47.2363C142.888 46.8235 142.524 46.5256 142.09 46.3425C141.664 46.1691 141.208 46.1175 140.723 46.1877C140.238 46.2579 139.765 46.4568 139.304 46.7845C138.843 47.1121 138.5 47.4935 138.275 47.9284C138.049 48.3634 137.948 48.811 137.972 49.2711C138.003 49.7409 138.165 50.1822 138.458 50.595C138.779 51.0462 139.179 51.3544 139.658 51.5197C140.137 51.6851 140.629 51.6964 141.135 51.5537L141.563 53.7421C141.013 53.9025 140.437 53.9362 139.836 53.8432C139.244 53.7434 138.677 53.5252 138.134 53.1885C137.601 52.8451 137.133 52.3901 136.73 51.8238Z" fill="white"/>
<path d="M142.152 60.8875C141.658 59.923 141.536 59.0391 141.787 58.2359C142.053 57.4378 142.668 56.7917 143.633 56.2977L147.407 54.3644L146.65 52.8861L148.49 51.9437L148.57 52.1009C148.785 52.5203 149.062 52.7889 149.4 52.9068C149.738 53.0247 150.117 52.9762 150.537 52.7614L151.197 52.4231L152.252 54.4833L150.302 55.4821L151.309 57.4479L149.469 58.3904L148.462 56.4246L144.798 58.3014C144.515 58.4464 144.298 58.6171 144.147 58.8135C144.002 59.0204 143.93 59.2555 143.933 59.5189C143.941 59.7928 144.03 60.0975 144.202 60.433C144.24 60.5064 144.288 60.5875 144.347 60.6765C144.411 60.776 144.473 60.8702 144.531 60.9592L142.77 61.8614C142.674 61.7254 142.567 61.5684 142.449 61.3904C142.332 61.2124 142.233 61.0448 142.152 60.8875Z" fill="white"/>
<path d="M144.735 66.3788L157.465 63.03L157.942 64.8413L150.352 74.3287L149.917 73.4383L159.538 70.9076L160.149 73.2316L147.418 76.5804L146.937 74.752L154.622 65.3491L155.035 66.1541L145.346 68.7028L144.735 66.3788Z" fill="white"/>
<path d="M147.802 83.9029C147.75 82.962 147.921 82.0914 148.313 81.2913C148.707 80.503 149.267 79.8589 149.995 79.359C150.723 78.8708 151.57 78.6004 152.534 78.5476C153.499 78.4948 154.37 78.6713 155.147 79.0771C155.925 79.4947 156.552 80.0738 157.029 80.8145C157.506 81.5552 157.771 82.402 157.823 83.3547C157.874 84.2956 157.703 85.1603 157.31 85.9486C156.917 86.737 156.356 87.3752 155.627 87.8633C154.912 88.3626 154.066 88.6389 153.089 88.6923C152.125 88.7451 151.254 88.5627 150.476 88.1452C149.698 87.7276 149.07 87.1485 148.593 86.4078C148.116 85.6671 147.852 84.8321 147.802 83.9029ZM149.919 83.7871C149.947 84.3046 150.095 84.7507 150.364 85.1253C150.632 85.5117 150.991 85.8048 151.438 86.0044C151.898 86.2152 152.404 86.3055 152.957 86.2752C153.522 86.2444 154.009 86.0997 154.42 85.8413C154.843 85.594 155.167 85.2637 155.392 84.8502C155.629 84.4479 155.734 83.988 155.706 83.4705C155.677 82.9412 155.522 82.4837 155.241 82.0979C154.972 81.7115 154.614 81.4126 154.166 81.2012C153.73 81.0009 153.23 80.9162 152.666 80.9471C152.113 80.9773 151.619 81.1164 151.184 81.3643C150.762 81.6234 150.438 81.9596 150.213 82.373C149.988 82.7864 149.89 83.2578 149.919 83.7871Z" fill="white"/>
<path d="M147.897 93.473L157.906 91.7054L157.526 94.1141L149.941 95.3693L150.09 94.5342L156.88 98.2157L156.561 100.24L148.971 101.638L149.086 100.797L155.917 104.325L155.538 106.733L146.557 101.973L146.879 99.931L154.809 98.5333L154.688 99.3012L147.577 95.4976L147.897 93.473Z" fill="white"/>
<path d="M149.599 112.819L151.105 111.915L152.224 113.778L153.641 112.167L154.964 113.311L153.563 114.929L155.651 115.798L154.972 117.429L152.884 116.56L152.723 118.694L150.979 118.561L151.124 116.42L149.013 116.939L148.601 115.217L150.712 114.698L149.599 112.819Z" fill="white"/>
<path d="M135.748 124.043C136.302 123.28 136.952 122.676 137.699 122.228C138.44 121.791 139.234 121.509 140.083 121.383C140.924 121.266 141.776 121.317 142.637 121.535C143.498 121.753 144.324 122.149 145.115 122.724C145.906 123.299 146.541 123.957 147.021 124.699C147.504 125.457 147.815 126.251 147.955 127.081C148.098 127.927 148.067 128.771 147.863 129.613C147.668 130.462 147.294 131.267 146.74 132.03C146.186 132.792 145.562 133.38 144.869 133.793C144.168 134.216 143.451 134.482 142.718 134.589C141.994 134.704 141.314 134.668 140.677 134.482L141.129 132.147C141.808 132.334 142.493 132.314 143.182 132.087C143.881 131.867 144.476 131.418 144.968 130.742C145.452 130.075 145.724 129.37 145.784 128.627C145.836 127.893 145.69 127.182 145.345 126.495C144.993 125.817 144.445 125.208 143.702 124.668C142.959 124.128 142.206 123.792 141.443 123.66C140.682 123.544 139.961 123.624 139.28 123.901C138.591 124.187 138.005 124.663 137.52 125.331C137.028 126.007 136.781 126.708 136.778 127.434C136.784 128.167 136.982 128.827 137.37 129.415L135.288 130.567C134.914 130.019 134.666 129.379 134.541 128.648C134.427 127.924 134.462 127.164 134.648 126.367C134.827 125.58 135.194 124.805 135.748 124.043Z" fill="white"/>
<path d="M127.511 133.105C128.21 132.473 128.995 132.059 129.864 131.861C130.724 131.672 131.578 131.703 132.424 131.954C133.261 132.214 134.004 132.702 134.651 133.419C135.298 134.136 135.708 134.924 135.881 135.784C136.046 136.651 135.99 137.503 135.713 138.34C135.437 139.176 134.945 139.914 134.237 140.554C133.537 141.185 132.757 141.596 131.897 141.786C131.037 141.975 130.188 141.94 129.35 141.681C128.512 141.438 127.765 140.953 127.11 140.228C126.463 139.511 126.057 138.719 125.893 137.851C125.728 136.984 125.784 136.132 126.061 135.295C126.337 134.459 126.82 133.728 127.511 133.105ZM128.932 134.679C128.547 135.026 128.294 135.422 128.171 135.866C128.039 136.318 128.037 136.78 128.163 137.254C128.288 137.744 128.536 138.195 128.907 138.606C129.286 139.025 129.705 139.313 130.164 139.47C130.622 139.644 131.083 139.688 131.546 139.603C132.008 139.535 132.431 139.327 132.816 138.98C133.209 138.625 133.468 138.217 133.591 137.756C133.723 137.304 133.73 136.837 133.613 136.356C133.495 135.891 133.246 135.449 132.867 135.029C132.496 134.619 132.078 134.322 131.612 134.14C131.145 133.974 130.68 133.934 130.217 134.019C129.754 134.103 129.325 134.323 128.932 134.679Z" fill="white"/>
<path d="M122.122 137.869L127.187 146.038L125.34 147.183L124.343 145.577L124.67 145.769C124.784 146.377 124.704 146.94 124.428 147.457C124.149 147.991 123.719 148.438 123.139 148.798C122.538 149.17 121.927 149.369 121.305 149.394C120.673 149.425 120.081 149.287 119.529 148.977C118.983 148.678 118.521 148.223 118.142 147.613L114.883 142.357L116.851 141.137L119.821 145.927C120.044 146.288 120.307 146.555 120.608 146.728C120.91 146.902 121.229 146.981 121.566 146.966C121.9 146.967 122.232 146.865 122.562 146.66C122.882 146.462 123.121 146.21 123.278 145.904C123.442 145.609 123.513 145.288 123.492 144.94C123.47 144.593 123.348 144.239 123.125 143.879L120.154 139.089L122.122 137.869Z" fill="white"/>
<path d="M109.104 144.758C110.095 144.321 110.985 144.251 111.772 144.548C112.553 144.86 113.162 145.512 113.599 146.504L115.309 150.385L116.829 149.715L117.663 151.607L117.501 151.678C117.07 151.868 116.785 152.129 116.648 152.459C116.511 152.79 116.537 153.171 116.727 153.603L117.026 154.282L114.908 155.215L114.024 153.21L112.003 154.1L111.17 152.209L113.191 151.318L111.531 147.551C111.403 147.259 111.245 147.033 111.058 146.871C110.86 146.714 110.629 146.628 110.366 146.616C110.092 146.608 109.783 146.68 109.438 146.832C109.362 146.865 109.279 146.908 109.186 146.962C109.083 147.02 108.986 147.076 108.893 147.129L108.095 145.318C108.237 145.23 108.4 145.133 108.584 145.026C108.769 144.919 108.942 144.83 109.104 144.758Z" fill="white"/>
<path d="M103.95 146.42C104.597 146.237 105.188 146.187 105.725 146.268C106.262 146.349 106.717 146.551 107.089 146.874C107.465 147.209 107.728 147.643 107.879 148.175C108.023 148.686 108.037 149.171 107.922 149.632C107.811 150.104 107.555 150.543 107.156 150.95C106.757 151.356 106.21 151.718 105.516 152.036L102.629 153.383L102.149 151.683L104.626 150.507C105.046 150.303 105.335 150.068 105.492 149.803C105.65 149.538 105.683 149.242 105.59 148.913C105.5 148.595 105.309 148.374 105.017 148.248C104.716 148.137 104.385 148.133 104.022 148.235C103.557 148.366 103.176 148.578 102.879 148.87C102.574 149.176 102.374 149.532 102.281 149.938C102.176 150.347 102.183 150.761 102.301 151.181L102.973 153.562C103.085 153.959 103.336 154.243 103.727 154.414C104.11 154.599 104.556 154.62 105.067 154.476C105.543 154.342 105.931 154.092 106.232 153.726C106.524 153.374 106.696 152.964 106.748 152.497L108.817 152.868C108.773 153.406 108.608 153.906 108.322 154.366C108.027 154.841 107.642 155.255 107.167 155.61C106.692 155.964 106.142 156.229 105.519 156.405C104.759 156.619 104.05 156.666 103.392 156.546C102.737 156.437 102.181 156.178 101.723 155.769C101.256 155.374 100.93 154.848 100.745 154.19L99.0082 148.034L101.117 147.439L101.563 149.021L101.096 149.189C101.223 148.725 101.412 148.311 101.664 147.946C101.919 147.592 102.235 147.283 102.613 147.017C102.994 146.763 103.44 146.564 103.95 146.42Z" fill="white"/>
<path d="M92.1217 148.736C93.0708 148.638 93.9485 148.767 94.7548 149.122C95.5506 149.49 96.204 150.026 96.7148 150.732C97.2269 151.448 97.5318 152.282 97.6296 153.231C97.7274 154.18 97.5982 155.052 97.242 155.846C96.8857 156.641 96.355 157.294 95.6497 157.804C94.9328 158.316 94.0997 158.621 93.1506 158.719C92.471 158.789 91.8256 158.731 91.2143 158.546C90.6043 158.372 90.0666 158.096 89.6013 157.717C89.1255 157.352 88.7643 156.892 88.5176 156.337L90.4483 155.25C90.6736 155.712 91.0122 156.068 91.4643 156.317C91.9046 156.568 92.3942 156.666 92.9332 156.61C93.4371 156.558 93.8755 156.389 94.2486 156.101C94.6099 155.816 94.8795 155.444 95.0575 154.988C95.2354 154.531 95.2954 154.022 95.2374 153.459C95.1795 152.897 95.0168 152.41 94.7495 152C94.4822 151.589 94.1425 151.281 93.7305 151.075C93.3067 150.87 92.8429 150.793 92.3391 150.845C91.7883 150.902 91.323 151.098 90.9431 151.433C90.5632 151.768 90.3107 152.191 90.1856 152.701L88.0702 151.996C88.2021 151.437 88.4566 150.92 88.8338 150.442C89.2121 149.977 89.6816 149.591 90.2421 149.285C90.8038 148.99 91.4303 148.807 92.1217 148.736Z" fill="white"/>
<path d="M81.4496 148.989C82.5324 149.034 83.3615 149.364 83.937 149.977C84.5002 150.602 84.7591 151.456 84.7136 152.539L84.5356 156.776L86.1951 156.846L86.1083 158.911L85.9317 158.904C85.461 158.884 85.0909 158.992 84.8216 159.228C84.5523 159.465 84.4078 159.818 84.388 160.289L84.3568 161.03L82.0442 160.933L82.1362 158.744L79.9294 158.651L80.0162 156.586L82.223 156.679L82.3958 152.565C82.4091 152.248 82.3675 151.975 82.271 151.747C82.1627 151.518 81.9934 151.34 81.7629 151.212C81.5207 151.084 81.2113 151.012 80.8347 150.996C80.7523 150.993 80.6579 150.995 80.5515 151.002C80.4333 151.009 80.321 151.016 80.2146 151.023L80.2976 149.046C80.4634 149.03 80.6527 149.014 80.8655 148.999C81.0784 148.985 81.2731 148.981 81.4496 148.989Z" fill="white"/>
<path d="M75.3992 148.536L72.0562 161.269L70.2446 160.793L65.7146 149.519L66.7039 149.578L64.1776 159.2L61.8534 158.59L65.1963 145.858L67.025 146.338L71.4345 157.653L70.5307 157.616L73.0749 147.926L75.3992 148.536Z" fill="white"/>
<path d="M58.6263 142.583C59.4704 143.002 60.1438 143.579 60.6465 144.315C61.1387 145.046 61.4229 145.851 61.4994 146.731C61.5652 147.605 61.3835 148.475 60.9541 149.34C60.5248 150.206 59.9421 150.876 59.206 151.353C58.4593 151.824 57.6462 152.084 56.7666 152.134C55.887 152.185 55.0199 151.998 54.1651 151.573C53.321 151.155 52.6528 150.58 52.1607 149.849C51.6686 149.118 51.3896 148.316 51.3237 147.441C51.242 146.572 51.4185 145.7 51.8531 144.824C52.2825 143.959 52.8705 143.291 53.6171 142.82C54.3637 142.348 55.1768 142.088 56.0564 142.038C56.9361 141.988 57.7927 142.17 58.6263 142.583ZM57.6838 144.483C57.2195 144.252 56.7583 144.161 56.3001 144.21C55.8314 144.254 55.3999 144.421 55.0057 144.712C54.5957 145.008 54.2676 145.404 54.0215 145.9C53.7702 146.407 53.6558 146.902 53.6783 147.387C53.6851 147.877 53.8129 148.321 54.0617 148.721C54.2947 149.126 54.6434 149.444 55.1076 149.674C55.5825 149.91 56.0569 150 56.5308 149.946C56.9995 149.903 57.4363 149.738 57.8411 149.452C58.2301 149.172 58.5502 148.779 58.8015 148.272C59.0476 147.776 59.1699 147.278 59.1684 146.777C59.1511 146.282 59.018 145.835 58.7692 145.435C58.5204 145.036 58.1586 144.718 57.6838 144.483Z" fill="white"/>
<path d="M50.3389 137.994L46.9414 147.574L45.0331 146.056L47.6811 138.838L48.3339 139.38L41.7833 143.471L40.1792 142.196L42.7056 134.903L43.3804 135.417L36.9433 139.622L35.035 138.104L43.6043 132.638L45.2223 133.925L42.5284 141.513L41.9199 141.029L48.7348 136.719L50.3389 137.994Z" fill="white"/>
<path d="M32.6543 129.947L32.703 131.703L30.5304 131.763L31.2383 133.788L29.5922 134.379L28.8704 132.365L27.0881 133.757L26.0004 132.365L27.7827 130.972L26.0026 129.784L26.9743 128.33L28.7683 129.507L29.3527 127.414L31.0553 127.9L30.4709 129.993L32.6543 129.947Z" fill="white"/>
<path d="M29.6698 112.379C30.0624 113.235 30.2704 114.099 30.2936 114.969C30.3119 115.829 30.1678 116.66 29.8613 117.461C29.5499 118.252 29.0881 118.969 28.4759 119.612C27.8638 120.256 27.1133 120.781 26.2245 121.188C25.3357 121.596 24.4503 121.827 23.5682 121.881C22.6705 121.93 21.8258 121.812 21.0343 121.526C20.2271 121.236 19.5068 120.795 18.8732 120.204C18.2289 119.618 17.7104 118.897 17.3177 118.04C16.9251 117.184 16.7187 116.352 16.6986 115.545C16.6736 114.727 16.794 113.972 17.0599 113.28C17.3151 112.593 17.6799 112.017 18.1542 111.554L19.9679 113.094C19.4713 113.593 19.153 114.199 19.0129 114.911C18.8621 115.628 18.961 116.367 19.3095 117.127C19.653 117.877 20.134 118.46 20.7525 118.876C21.366 119.282 22.0569 119.503 22.8252 119.539C23.5887 119.565 24.388 119.387 25.2232 119.004C26.0585 118.621 26.7208 118.13 27.2103 117.529C27.6841 116.923 27.9676 116.256 28.0609 115.526C28.1492 114.786 28.0216 114.041 27.678 113.292C27.3295 112.531 26.8398 111.972 26.2089 111.613C25.5673 111.259 24.8951 111.107 24.1924 111.157L24.2097 108.778C24.8705 108.721 25.5498 108.818 26.2477 109.068C26.9348 109.324 27.58 109.728 28.1832 110.28C28.7816 110.823 29.2771 111.522 29.6698 112.379Z" fill="white"/>
<path d="M25.8253 100.741C26.03 101.661 26.0042 102.548 25.7476 103.401C25.4886 104.243 25.041 104.971 24.4049 105.583C23.7663 106.183 22.9755 106.589 22.0327 106.799C21.0898 107.008 20.2018 106.977 19.3687 106.704C18.533 106.419 17.8192 105.95 17.2275 105.298C16.6357 104.645 16.2361 103.853 16.0288 102.922C15.8241 102.002 15.8512 101.121 16.1103 100.279C16.3694 99.4367 16.8183 98.7153 17.4569 98.1145C18.0815 97.5049 18.8709 97.0938 19.8253 96.8814C20.7681 96.6716 21.6574 96.7089 22.4931 96.9936C23.3288 97.2782 24.0426 97.7469 24.6343 98.3996C25.2261 99.0523 25.6231 99.8328 25.8253 100.741ZM23.7556 101.202C23.643 100.696 23.4237 100.28 23.0978 99.9544C22.7693 99.6172 22.3681 99.3867 21.894 99.2629C21.4059 99.1302 20.8916 99.124 20.3512 99.2443C19.7993 99.3671 19.342 99.5896 18.9792 99.9117C18.6024 100.225 18.3368 100.604 18.1823 101.048C18.0138 101.484 17.9859 101.955 18.0985 102.461C18.2137 102.978 18.4412 103.404 18.7812 103.739C19.1097 104.076 19.5122 104.312 19.9889 104.448C20.4514 104.574 20.9587 104.576 21.5106 104.453C22.051 104.333 22.5154 104.115 22.9037 103.799C23.2779 103.474 23.5423 103.09 23.6967 102.645C23.8511 102.2 23.8708 101.719 23.7556 101.202Z" fill="white"/>
<path d="M24.3414 93.7228L14.7368 94.1024L14.651 91.9308L16.5401 91.8561L16.2116 92.0459C15.626 91.8451 15.1761 91.4974 14.8619 91.0029C14.5354 90.4971 14.3586 89.9028 14.3316 89.2202C14.3037 88.5139 14.4321 87.8841 14.7167 87.3305C15.0009 86.7652 15.4135 86.3186 15.9546 85.9907C16.484 85.6633 17.1077 85.4854 17.8257 85.457L24.0051 85.2128L24.0965 87.5257L18.4644 87.7483C18.0406 87.765 17.679 87.8618 17.3795 88.0387C17.08 88.2156 16.8536 88.4544 16.7005 88.7552C16.5351 89.0447 16.4601 89.3836 16.4754 89.772C16.4903 90.1487 16.5919 90.4807 16.78 90.7679C16.9565 91.0557 17.2009 91.2759 17.5135 91.4286C17.826 91.5813 18.1942 91.6493 18.6179 91.6325L24.25 91.4099L24.3414 93.7228Z" fill="white"/>
<path d="M24.7631 78.9076C24.6551 79.986 24.2782 80.7947 23.6323 81.3338C22.9759 81.86 22.1085 82.0692 21.0302 81.9612L16.8106 81.5389L16.6452 83.1916L14.5882 82.9857L14.6058 82.8099C14.6527 82.341 14.566 81.9654 14.3456 81.6829C14.1253 81.4004 13.7807 81.2357 13.3119 81.1887L12.5735 81.1148L12.804 78.8116L14.9841 79.0298L15.2041 76.8322L17.2611 77.038L17.0411 79.2357L21.1376 79.6457C21.4541 79.6774 21.729 79.6517 21.9622 79.5685C22.1967 79.4735 22.3842 79.3147 22.5249 79.092C22.6667 78.8576 22.7564 78.5529 22.794 78.1778C22.8022 78.0958 22.8057 78.0014 22.8045 77.8947C22.8045 77.7764 22.804 77.6638 22.8028 77.5572L24.7719 77.7543C24.779 77.9207 24.7836 78.1106 24.786 78.3239C24.7883 78.5372 24.7806 78.7318 24.7631 78.9076Z" fill="white"/>
<path d="M25.8489 73.6132C25.6899 74.2656 25.4432 74.8056 25.1086 75.2333C24.7741 75.661 24.3744 75.9577 23.9097 76.1233C23.4336 76.2861 22.9265 76.302 22.3886 76.171C21.8736 76.0455 21.4437 75.8195 21.0989 75.493C20.7427 75.1637 20.4858 74.7253 20.3282 74.1777C20.1707 73.6301 20.1239 72.9761 20.1879 72.2157L20.4346 69.0387L22.1513 69.457L21.9577 72.1923C21.929 72.6582 21.9912 73.0249 22.1443 73.2926C22.2973 73.5602 22.5398 73.7345 22.8717 73.8153C23.1921 73.8934 23.4789 73.836 23.732 73.643C23.9765 73.4359 24.1433 73.1492 24.2326 72.7829C24.3469 72.3137 24.35 71.878 24.2419 71.4758C24.1251 71.0594 23.913 70.7106 23.6056 70.4296C23.301 70.1372 22.937 69.9394 22.5135 69.8362L20.1101 69.2506C19.7096 69.153 19.3386 69.2324 18.9973 69.4887C18.6474 69.7308 18.4096 70.1093 18.2842 70.6244C18.167 71.105 18.1941 71.5663 18.3653 72.0081C18.5279 72.4357 18.7999 72.7869 19.1816 73.0617L17.8413 74.6811C17.3938 74.3781 17.0401 73.9888 16.7801 73.5132C16.5115 73.0234 16.3397 72.4845 16.2647 71.8964C16.1898 71.3083 16.229 70.6995 16.3823 70.0701C16.5692 69.3033 16.8768 68.6629 17.3051 68.1489C17.722 67.6321 18.2212 67.2749 18.8029 67.0771C19.3759 66.8651 19.9943 66.84 20.6581 67.0017L26.8726 68.5159L26.3539 70.6446L24.7574 70.2556L24.8402 69.7666C25.1822 70.1045 25.4501 70.4729 25.6439 70.8717C25.8263 71.2677 25.9403 71.6956 25.9859 72.1553C26.02 72.6122 25.9744 73.0982 25.8489 73.6132Z" fill="white"/>
<path d="M29.6526 62.1666C29.2705 63.0409 28.7265 63.7416 28.0205 64.2687C27.3084 64.7802 26.5197 65.0848 25.6544 65.1822C24.7782 65.275 23.903 65.1304 23.0287 64.7483C22.1544 64.3662 21.4591 63.8245 20.9428 63.1233C20.4266 62.422 20.1197 61.6387 20.0222 60.7734C19.9294 59.8972 20.0741 59.022 20.4562 58.1477C20.7297 57.5216 21.0978 56.9883 21.5603 56.5477C22.0121 56.1023 22.5171 55.7702 23.0755 55.5515C23.6278 55.3172 24.2062 55.2293 24.8105 55.2877L24.8064 57.5034C24.2931 57.4719 23.8166 57.5915 23.377 57.8622C22.942 58.122 22.616 58.5002 22.3991 58.9968C22.1962 59.4609 22.128 59.926 22.1943 60.392C22.2653 60.8473 22.4556 61.2647 22.7654 61.6443C23.0751 62.024 23.4891 62.327 24.0072 62.5534C24.5253 62.7798 25.0288 62.8777 25.5178 62.8472C26.0068 62.8166 26.4425 62.6728 26.8248 62.4156C27.2119 62.1477 27.5068 61.7817 27.7097 61.3175C27.9314 60.8102 27.9898 60.3087 27.8851 59.813C27.7803 59.3173 27.5367 58.8894 27.1541 58.5294L28.8097 57.0354C29.2307 57.4251 29.556 57.9015 29.7856 58.4646C30.0044 59.023 30.1092 59.6215 30.1 60.2603C30.08 60.8943 29.9309 61.5298 29.6526 62.1666Z" fill="white"/>
<path d="M34.6478 52.8378C34.0744 53.7574 33.379 54.3163 32.5613 54.5146C31.7399 54.6965 30.8694 54.5009 29.9498 53.9275L26.3512 51.684L25.4725 53.0935L23.7181 51.9998L23.8116 51.8498C24.0609 51.45 24.1491 51.0747 24.0763 50.7239C24.0035 50.3731 23.7672 50.0731 23.3673 49.8238L22.7376 49.4312L23.9621 47.4669L25.8214 48.6261L26.9899 46.7518L28.7442 47.8455L27.5757 49.7198L31.0694 51.8978C31.3393 52.0661 31.5972 52.1645 31.8432 52.1929C32.0955 52.2113 32.3339 52.1518 32.5585 52.0142C32.7893 51.8666 33.0045 51.6328 33.2039 51.313C33.2475 51.243 33.2924 51.1599 33.3385 51.0637C33.3908 50.9575 33.44 50.8563 33.4861 50.7601L35.1654 51.8071C35.0982 51.9595 35.0184 52.1319 34.9263 52.3243C34.8341 52.5167 34.7413 52.6878 34.6478 52.8378Z" fill="white"/>
<path d="M38.0282 47.7983L28.5903 38.6217L29.896 37.2789L41.9391 38.8842L41.4009 39.7165L34.2687 32.7817L35.9439 31.0588L45.3818 40.2354L44.0638 41.5909L32.0439 39.8603L32.5204 39.0914L39.7034 46.0755L38.0282 47.7983Z" fill="white"/>
<path d="M51.4608 36.1126C50.6818 36.643 49.8484 36.9468 48.9605 37.0241C48.0823 37.0948 47.2412 36.9478 46.4371 36.5832C45.6428 36.212 44.9739 35.6272 44.4302 34.8288C43.8866 34.0303 43.5876 33.1936 43.5333 32.3185C43.4888 31.4368 43.6603 30.6003 44.0479 29.8091C44.4355 29.0179 45.0236 28.3538 45.8123 27.8168C46.5912 27.2865 47.4198 26.9859 48.298 26.9153C49.1762 26.8446 50.0124 26.9949 50.8067 27.3661C51.6041 27.721 52.278 28.3025 52.8283 29.1106C53.3719 29.9091 53.666 30.7491 53.7106 31.6308C53.7551 32.5126 53.5836 33.349 53.196 34.1402C52.8084 34.9314 52.23 35.5889 51.4608 36.1126ZM50.2674 34.36C50.6959 34.0683 51.0011 33.7108 51.1832 33.2875C51.375 32.8577 51.4408 32.3996 51.3805 31.9134C51.3233 31.4108 51.1389 30.9307 50.8273 30.473C50.5091 30.0057 50.1333 29.663 49.6999 29.4451C49.2696 29.2108 48.8193 29.1041 48.349 29.125C47.8819 29.1296 47.4341 29.2778 47.0056 29.5695C46.5675 29.8678 46.2558 30.2368 46.0706 30.6764C45.8788 31.1063 45.8081 31.5677 45.8587 32.0605C45.9124 32.537 46.0983 33.0089 46.4165 33.4763C46.7281 33.9339 47.1024 34.2848 47.5393 34.5288C47.9794 34.7565 48.4345 34.8598 48.9048 34.8389C49.3751 34.818 49.8293 34.6583 50.2674 34.36Z" fill="white"/>
<path d="M59.5258 31.1355L52.8475 23.4731L55.1066 22.5556L60.0954 28.4058L59.3029 28.7086L58.9537 20.9931L60.8527 20.2218L65.9658 26.0025L65.1867 26.338L64.6835 18.666L66.9426 17.7485L67.4983 27.8975L65.5829 28.6754L60.2944 22.6036L61.0147 22.3111L61.4248 30.3642L59.5258 31.1355Z" fill="white"/>
<path d="M75.2174 19.6972L73.666 18.8739L74.6845 16.954L72.5733 16.5712L72.8709 14.8478L74.9795 15.2131L74.6469 12.976L76.3946 12.7161L76.7272 14.9532L78.6384 13.9903L79.4244 15.5526L77.5159 16.533L79.049 18.0736L77.7866 19.3152L76.2535 17.7746L75.2174 19.6972Z" fill="white"/>
<path d="M101.23 76.2165L102.3 93.5976C102.316 93.8512 102.282 94.1053 102.199 94.3456C102.116 94.5858 101.987 94.8075 101.819 94.9978C101.651 95.1882 101.447 95.3435 101.218 95.455C100.99 95.5664 100.742 95.6318 100.488 95.6475C100.235 95.6631 99.9807 95.6286 99.7404 95.546C99.5002 95.4634 99.2785 95.3343 99.0882 95.166C98.8978 94.9978 98.7425 94.7937 98.631 94.5654C98.5196 94.3371 98.4541 94.0891 98.4385 93.8355L97.6493 81.1118L78.5097 102.764C78.1707 103.148 77.6934 103.381 77.1827 103.412C76.6719 103.444 76.1696 103.271 75.7862 102.932C75.4028 102.593 75.1697 102.116 75.1383 101.605C75.1068 101.094 75.2795 100.592 75.6184 100.208L94.7581 78.5561L82.0337 79.3344C81.5216 79.366 81.0179 79.1928 80.6335 78.853C80.4432 78.6847 80.2878 78.4806 80.1763 78.2523C80.0649 78.024 79.9995 77.776 79.9838 77.5224C79.9682 77.2689 80.0027 77.0147 80.0853 76.7745C80.1679 76.5342 80.297 76.3126 80.4653 76.1222C80.8051 75.7378 81.2837 75.5041 81.7958 75.4726L99.177 74.4019C99.4311 74.3852 99.6861 74.419 99.9271 74.5013C100.168 74.5837 100.39 74.7129 100.581 74.8816C100.772 75.0503 100.928 75.2551 101.039 75.4842C101.15 75.7133 101.215 75.9622 101.23 76.2165Z" fill="white"/>
</svg>
