<svg width="80" height="80" viewBox="0 0 80 80" fill="none" xmlns="http://www.w3.org/2000/svg">
<mask id="mask0_9088_263" style="mask-type:luminance" maskUnits="userSpaceOnUse" x="0" y="0" width="80" height="80">
<path d="M80 0H0V80H80V0Z" fill="white"/>
</mask>
<g mask="url(#mask0_9088_263)">
<path d="M70.9769 40.4079L62.2734 26.9675C61.5988 25.9257 60.4551 25.3037 59.214 25.3037H20.8129C19.5737 25.3037 18.431 25.9242 17.7562 26.9632L9.02558 40.4054C8.13339 41.7789 8.27121 43.5923 9.36074 44.8151L37.2766 76.1557C37.9676 76.9314 38.9594 77.3764 39.9982 77.3764C39.998 77.3764 39.9984 77.3764 39.9982 77.3764C41.0368 77.3764 42.0291 76.9315 42.7201 76.1559L70.6391 44.8134C71.7271 43.592 71.866 41.7804 70.9769 40.4079ZM57.4509 28.4285L50.1312 39.7473L42.8071 28.4285H57.4509ZM47.2595 41.0617H32.7369L39.9982 29.84L47.2595 41.0617ZM37.1893 28.4289L29.8854 39.7165L22.584 28.4289H37.1893ZM19.6948 29.7156L27.0338 41.0617H12.3255L19.6948 29.7156ZM12.9855 44.1867H28.7113L37.0263 71.1765L12.9855 44.1867ZM39.9982 70.209L31.9812 44.1867H48.0152L39.9982 70.209ZM42.9699 71.1774L51.2852 44.1868H67.0124L42.9699 71.1774ZM53.0029 41.0617L60.3352 29.7234L67.6773 41.0617H53.0029Z" fill="#D82626"/>
<path d="M4.73953 41.0615H1.5625C0.699688 41.0615 0 41.7611 0 42.624C0 43.487 0.699688 44.1865 1.5625 44.1865H4.73953C5.60235 44.1865 6.30203 43.487 6.30203 42.624C6.30203 41.7611 5.60235 41.0615 4.73953 41.0615Z" fill="#D82626"/>
<path d="M78.4368 41.0615H75.2598C74.397 41.0615 73.6973 41.7611 73.6973 42.624C73.6973 43.487 74.397 44.1865 75.2598 44.1865H78.4368C79.2997 44.1865 79.9993 43.487 79.9993 42.624C79.9993 41.7611 79.2997 41.0615 78.4368 41.0615Z" fill="#D82626"/>
<path d="M68.3049 14.3483C67.6945 13.7381 66.7055 13.7381 66.095 14.3483L60.9049 19.5384C60.2947 20.1486 60.2947 21.138 60.9049 21.7481C61.2102 22.0533 61.61 22.2058 62.0099 22.2058C62.4099 22.2058 62.8095 22.0531 63.1147 21.7481L68.3049 16.558C68.915 15.9478 68.915 14.9586 68.3049 14.3483Z" fill="#D82626"/>
<path d="M19.1641 19.5102L13.9741 14.3199C13.3641 13.7098 12.375 13.7098 11.7642 14.3199C11.1541 14.9301 11.1541 15.9195 11.7642 16.5296L16.9544 21.7198C17.2595 22.0249 17.6594 22.1774 18.0592 22.1774C18.4591 22.1774 18.8589 22.0248 19.1641 21.7198C19.7742 21.1098 19.7742 20.1202 19.1641 19.5102Z" fill="#D82626"/>
<path d="M40.0391 2.62402C39.1763 2.62402 38.4766 3.32355 38.4766 4.18652V14.369C38.4766 15.232 39.1761 15.9315 40.0391 15.9315C40.9019 15.9315 41.6016 15.232 41.6016 14.369V4.18652C41.6016 3.3237 40.9019 2.62402 40.0391 2.62402Z" fill="#D82626"/>
<path d="M41.1436 18.5496C40.8531 18.259 40.45 18.0918 40.0391 18.0918C39.6281 18.0918 39.225 18.259 38.9344 18.5496C38.6438 18.8402 38.4766 19.2434 38.4766 19.6543C38.4766 20.0668 38.6436 20.4684 38.9344 20.759C39.225 21.0512 39.6281 21.2168 40.0391 21.2168C40.45 21.2168 40.8531 21.0512 41.1436 20.759C41.4358 20.4684 41.6016 20.0652 41.6016 19.6543C41.6016 19.2434 41.4358 18.8404 41.1436 18.5496Z" fill="#D82626"/>
</g>
</svg>
