<svg xmlns="http://www.w3.org/2000/svg" width="18" height="19" viewBox="0 0 18 19" fill="none">
<path d="M9.64117 17.0634L2.38848 9.79312C2.2597 9.67605 2.19531 9.52971 2.19531 9.3541C2.19531 9.17849 2.2597 9.03214 2.38848 8.91507L9.64117 1.64483C9.76995 1.51605 9.92214 1.45166 10.0978 1.45166C10.2734 1.45166 10.4197 1.51605 10.5368 1.64483L12.1524 3.278C12.2812 3.39507 12.3456 3.54142 12.3456 3.71703C12.3456 3.89264 12.2812 4.03898 12.1524 4.15605L6.95434 9.3541L12.1524 14.5521C12.2812 14.6809 12.3456 14.8273 12.3456 14.9912C12.3456 15.1551 12.2812 15.3073 12.1524 15.4478L10.5368 17.0634C10.408 17.1921 10.2617 17.2565 10.0978 17.2565C9.93385 17.2565 9.78165 17.1921 9.64117 17.0634Z" fill="white"/>
</svg>