<svg width="81" height="81" viewBox="0 0 81 81" fill="none" xmlns="http://www.w3.org/2000/svg">
<g clip-path="url(#clip0_9088_229)">
<mask id="mask0_9088_229" style="mask-type:luminance" maskUnits="userSpaceOnUse" x="0" y="0" width="81" height="81">
<path d="M80.959 0.253906H0.958984V80.2539H80.959V0.253906Z" fill="white"/>
</mask>
<g mask="url(#mask0_9088_229)">
<path d="M78.724 26.15C77.0051 25.2054 74.387 25.3954 72.7006 28.0465C72.6956 28.0545 72.6906 28.0625 72.6856 28.0706L66.4162 38.331C65.6611 37.8957 64.795 37.7027 63.914 37.7815C62.8095 37.8804 61.8158 38.3987 61.1161 39.2409C60.6686 39.7796 59.1901 41.6263 57.625 43.5816C56.1384 45.4385 54.6014 47.3588 54.1723 47.8752C52.6845 49.666 50.7867 51.043 48.7775 52.5008C45.9269 54.5694 42.8094 56.8316 40.9594 60.5215C39.1095 56.8316 35.9921 54.5694 33.1413 52.5008C31.1322 51.0429 29.2344 49.6659 27.7464 47.8752C27.3177 47.3591 25.7819 45.4404 24.2966 43.5849C22.7302 41.6282 21.2507 39.7798 20.8029 39.2409C20.103 38.3987 19.1093 37.8804 18.0049 37.7815C17.1233 37.7027 16.2579 37.896 15.5027 38.331L9.23337 28.0706C9.22853 28.0625 9.22353 28.0545 9.21838 28.0465C7.53213 25.3957 4.91385 25.205 3.19495 26.15C1.1587 27.2695 0.398707 29.7678 1.42745 31.9612C1.4298 31.9662 1.43214 31.971 1.43448 31.976C1.8737 32.8873 2.94214 35.4367 4.17948 38.3888C5.91119 42.5204 8.06619 47.6624 9.89244 51.6794C12.2715 56.9127 13.3385 58.3833 17.504 62.1694L23.1235 67.2774V67.7544H22.2096C21.3466 67.7544 20.6471 68.4539 20.6471 69.3169V78.6919C20.6471 79.5549 21.3466 80.2544 22.2096 80.2544H59.7095C60.5723 80.2544 61.272 79.5549 61.272 78.6919V69.3169C61.272 68.4539 60.5723 67.7544 59.7095 67.7544H58.7956V67.2774L64.4153 62.1694C68.5806 58.3833 69.6476 56.9127 72.0268 51.6794C73.8529 47.6626 76.0079 42.5209 77.7395 38.3895C78.977 35.437 80.0457 32.8873 80.4848 31.976C80.4871 31.971 80.4895 31.9662 80.4918 31.9612C81.5207 29.7678 80.7607 27.2695 78.724 26.15ZM25.7371 65.4299L19.606 59.8569C15.7685 56.369 14.934 55.2182 12.7374 50.3862C10.9304 46.4115 8.78541 41.2934 7.06166 37.1809C5.75948 34.0737 4.7301 31.6178 4.2537 30.6278C3.81714 29.6892 4.32854 29.0932 4.70057 28.8887C5.32432 28.5459 6.02447 28.854 6.57526 29.7134L13.544 41.1185C13.416 41.9549 13.5212 42.9938 14.029 44.2774C15.4872 47.9629 17.2951 51.6441 18.9888 54.3772C19.4433 55.1108 20.4063 55.3368 21.1401 54.8822C21.8735 54.4277 22.0997 53.4646 21.6452 52.731C20.0449 50.1485 18.328 46.6482 16.9349 43.1276C16.3394 41.6227 16.7349 41.2902 16.8838 41.1651C17.1241 40.9632 17.423 40.8677 17.7268 40.8943C17.9965 40.9184 18.2355 41.0407 18.3997 41.2384C18.8294 41.7554 20.3688 43.6784 21.8574 45.5382C23.4202 47.4905 24.8963 49.3346 25.3433 49.8726C27.0819 51.9652 29.2296 53.5235 31.3064 55.0305C35.3317 57.9513 38.8102 60.4755 39.3974 66.3375V67.7547H26.2486V66.5863C26.2486 66.1458 26.0629 65.7261 25.7371 65.4299ZM23.7722 70.8794H39.3972V77.1294H23.7722V70.8794ZM58.147 77.1294H42.5222V70.8794H58.147V77.1294ZM77.6656 30.6276C77.1893 31.6178 76.1598 34.074 74.8573 37.1815C73.1339 41.2937 70.9887 46.4116 69.182 50.386C66.9851 55.2182 66.1507 56.3688 62.3133 59.8568L56.1822 65.4297C55.8564 65.726 55.6708 66.1457 55.6708 66.586V67.7544H42.5224V66.3364C43.1097 60.4749 46.5881 57.9508 50.6131 55.0302C52.69 53.5232 54.8376 51.9649 56.5762 49.8724C57.0236 49.334 58.5008 47.4885 60.065 45.5345C61.5525 43.6762 63.0904 41.7548 63.5198 41.2381C63.684 41.0404 63.9231 40.9182 64.1928 40.8941C64.4957 40.8668 64.7954 40.9631 65.0359 41.1651C65.1846 41.2902 65.5801 41.6226 64.9848 43.1274C63.5917 46.6482 61.8748 50.1487 60.2745 52.731C59.82 53.4644 60.0461 54.4276 60.7795 54.8822C61.5131 55.3365 62.4761 55.1104 62.9308 54.3771C64.6243 51.6441 66.432 47.9629 67.8906 44.2773C68.3984 42.9937 68.5034 41.9548 68.3754 41.1185L75.3446 29.7129C75.8953 28.8542 76.5953 28.5459 77.219 28.8887C77.5909 29.0929 78.1023 29.689 77.6656 30.6276Z" fill="#D82626"/>
<path d="M40.9599 29.1144C43.9501 29.1144 46.3829 26.6817 46.3829 23.6916C46.3829 20.7014 43.9503 18.2686 40.9599 18.2686C37.9696 18.2686 35.5371 20.7013 35.5371 23.6916C35.5371 26.6819 37.9696 29.1144 40.9599 29.1144ZM40.9599 21.3936C42.227 21.3936 43.2579 22.4244 43.2579 23.6916C43.2579 24.9586 42.227 25.9894 40.9599 25.9894C39.6929 25.9894 38.6621 24.9586 38.6621 23.6916C38.6621 22.4244 39.6929 21.3936 40.9599 21.3936Z" fill="#D82626"/>
<path d="M19.084 25.2538H20.1529C20.9162 35.5154 29.1348 43.7339 39.3963 44.4972V45.5663C39.3963 46.4293 40.0958 47.1288 40.9588 47.1288C41.8218 47.1288 42.5213 46.4293 42.5213 45.5663V44.4972C52.7828 43.7339 61.0014 35.5154 61.7647 25.2538H62.8338C63.6966 25.2538 64.3962 24.5543 64.3962 23.6913C64.3962 22.8284 63.6966 22.1288 62.8338 22.1288H61.7647C61.0014 11.8673 52.7828 3.64874 42.5213 2.88546V1.8164C42.5213 0.953436 41.8216 0.253906 40.9588 0.253906C40.0958 0.253906 39.3963 0.953436 39.3963 1.8164V2.8853C29.1348 3.64874 20.9163 11.8671 20.1529 22.1288H19.084C18.221 22.1288 17.5215 22.8284 17.5215 23.6913C17.5215 24.5543 18.221 25.2538 19.084 25.2538ZM23.2882 25.2538H27.9079C28.6219 31.2549 33.3954 36.0283 39.3965 36.7422V41.3619C30.859 40.6133 24.0368 33.7912 23.2882 25.2538ZM40.959 13.6728C46.4832 13.6728 50.9774 18.167 50.9774 23.6912C50.9774 29.2152 46.4832 33.7096 40.959 33.7096C35.4347 33.7096 30.9404 29.2154 30.9404 23.6913C30.9404 18.1671 35.4347 13.6728 40.959 13.6728ZM42.5214 41.3619V36.7422C48.5224 36.0282 53.2958 31.2547 54.0099 25.2538H58.6297C57.8811 33.7912 51.0588 40.6133 42.5214 41.3619ZM58.6297 22.1288H54.0099C53.2958 16.1277 48.5224 11.3543 42.5214 10.6403V6.02061C51.0588 6.7692 57.8811 13.5913 58.6297 22.1288ZM39.3965 6.02061V10.6403C33.3954 11.3543 28.6219 16.1277 27.9079 22.1288H23.2882C24.0368 13.5913 30.859 6.7692 39.3965 6.02061Z" fill="#D82626"/>
</g>
</g>
<defs>
<clipPath id="clip0_9088_229">
<rect width="81" height="81" fill="white"/>
</clipPath>
</defs>
</svg>
