<svg width="81" height="81" viewBox="0 0 81 81" fill="none" xmlns="http://www.w3.org/2000/svg">
<mask id="mask0_9088_244" style="mask-type:luminance" maskUnits="userSpaceOnUse" x="0" y="0" width="81" height="81">
<path d="M80.9375 0.444336H0.9375V80.4443H80.9375V0.444336Z" fill="white"/>
</mask>
<g mask="url(#mask0_9088_244)">
<path d="M80.7323 39.7331C72.3994 26.4393 57.9555 18.2099 42.2708 17.8197V7.11035H39.6041V17.8197C23.9194 18.2099 9.4755 26.4393 1.14263 39.7331C0.869124 40.1675 0.869124 40.7201 1.14263 41.1545C9.4755 54.4484 23.9194 62.6777 39.6041 63.0679V73.7773H42.2708V63.0679C57.9555 62.6777 72.3994 54.4484 80.7323 41.1545C81.006 40.7201 81.006 40.1675 80.7323 39.7331ZM3.85597 40.4438C9.2995 32.1203 17.3949 25.8794 26.8294 22.7331C21.8006 26.7378 18.7132 32.6928 18.3387 39.1105H7.60399V41.7772H18.3387C18.7132 48.1948 21.8006 54.1499 26.8294 58.1546C17.3949 55.0082 9.2995 48.7673 3.85597 40.4438ZM39.6041 52.4439V60.3759C29.6266 59.6982 21.6831 51.7547 21.0054 41.7772H28.9374V39.1105H21.0054C21.6831 29.1329 29.6266 21.1894 39.6041 20.5117V28.4438H42.2708V20.5117C52.2484 21.1894 60.1919 29.1328 60.8696 39.1105H52.9375V41.7772H60.8696C60.1919 51.7547 52.2484 59.6982 42.2708 60.3759V52.4439H39.6041ZM78.019 40.4438C72.5754 48.7673 64.4801 55.0082 55.0455 58.1546C60.0744 54.1499 63.1617 48.1948 63.5362 41.7772H74.2709V39.1105H63.5362C63.1617 32.6928 60.0744 26.7376 55.0455 22.7331C64.4802 25.8796 72.5754 32.1203 78.019 40.4438Z" fill="#D82626"/>
<path d="M40.9369 31.1104C35.7822 31.1104 31.6035 35.289 31.6035 40.4437C31.6093 45.5959 35.7847 49.7712 40.9369 49.7771C46.0916 49.7771 50.2703 45.5984 50.2703 40.4437C50.2703 35.289 46.0916 31.1104 40.9369 31.1104ZM40.9369 47.1104C37.255 47.1104 34.2702 44.1256 34.2702 40.4437C34.2745 36.7637 37.2569 33.7814 40.9369 33.777C44.6187 33.777 47.6036 36.7619 47.6036 40.4437C47.6036 44.1256 44.6189 47.1104 40.9369 47.1104Z" fill="#D82626"/>
<path d="M8.93685 7.11035C8.20052 7.11035 7.60352 7.70735 7.60352 8.44369V19.1104H10.2702V9.77703H19.6036V7.11035H8.93685Z" fill="#D82626"/>
<path d="M72.9382 7.11035H62.2715V9.77703H71.6049V19.1104H74.2716V8.44369C74.2716 7.70735 73.6746 7.11035 72.9382 7.11035Z" fill="#D82626"/>
<path d="M71.6049 61.7773V71.1107H62.2715V73.7774H72.9382C73.6746 73.7774 74.2716 73.1804 74.2716 72.444V61.7773H71.6049Z" fill="#D82626"/>
<path d="M10.2702 71.1107V61.7773H7.60352V72.444C7.60352 73.1804 8.20052 73.7774 8.93685 73.7774H19.6036V71.1107H10.2702Z" fill="#D82626"/>
</g>
</svg>
