<svg width="32" height="32" viewBox="0 0 32 32" fill="none" xmlns="http://www.w3.org/2000/svg">
<path d="M15.4559 3.72715C15.5475 3.09994 16.4525 3.09994 16.5441 3.72715L16.6208 4.2527C16.7036 4.82017 17.491 4.89772 17.6829 4.35732L17.8607 3.85683C18.0729 3.25953 18.9605 3.43609 18.9279 4.06911L18.9006 4.59953C18.8712 5.17225 19.6283 5.40192 19.922 4.90935L20.194 4.45316C20.5186 3.90873 21.3547 4.25507 21.1993 4.86957L21.069 5.38447C20.9284 5.94044 21.6262 6.31341 22.0103 5.8876L22.3661 5.49323C22.7906 5.02259 23.5431 5.52539 23.2708 6.09776L23.0426 6.57736C22.7962 7.09521 23.4078 7.59714 23.8676 7.25445L24.2935 6.93708C24.8018 6.55831 25.4417 7.19825 25.0629 7.70649L24.7455 8.13236C24.4029 8.59219 24.9048 9.20379 25.4226 8.9574L25.9022 8.7292C26.4746 8.45687 26.9774 9.20935 26.5068 9.63394L26.1124 9.98971C25.6866 10.3738 26.0596 11.0716 26.6155 10.931L27.1304 10.8007C27.7449 10.6453 28.0913 11.4814 27.5468 11.806L27.0906 12.078C26.5981 12.3717 26.8277 13.1288 27.4005 13.0994L27.9309 13.0721C28.5639 13.0395 28.7405 13.9271 28.1432 14.1393L27.6427 14.3171C27.1023 14.509 27.1798 15.2964 27.7473 15.3792L28.2728 15.4559C28.9001 15.5475 28.9001 16.4525 28.2728 16.5441L27.7473 16.6208C27.1798 16.7036 27.1023 17.491 27.6427 17.6829L28.1432 17.8607C28.7405 18.0729 28.5639 18.9605 27.9309 18.9279L27.4005 18.9006C26.8277 18.8712 26.5981 19.6283 27.0906 19.922L27.5468 20.194C28.0913 20.5186 27.7449 21.3547 27.1304 21.1993L26.6155 21.069C26.0596 20.9284 25.6866 21.6262 26.1124 22.0103L26.5068 22.3661C26.9774 22.7906 26.4746 23.5431 25.9022 23.2708L25.4226 23.0426C24.9048 22.7962 24.4029 23.4078 24.7455 23.8676L25.0629 24.2935C25.4417 24.8018 24.8018 25.4417 24.2935 25.0629L23.8676 24.7455C23.4078 24.4029 22.7962 24.9048 23.0426 25.4226L23.2708 25.9022C23.5431 26.4746 22.7906 26.9774 22.3661 26.5068L22.0103 26.1124C21.6262 25.6866 20.9284 26.0596 21.069 26.6155L21.1993 27.1304C21.3547 27.7449 20.5186 28.0913 20.194 27.5468L19.922 27.0906C19.6283 26.5981 18.8712 26.8277 18.9006 27.4005L18.9279 27.9309C18.9605 28.5639 18.0729 28.7405 17.8607 28.1432L17.6829 27.6427C17.491 27.1023 16.7036 27.1798 16.6208 27.7473L16.5441 28.2728C16.4525 28.9001 15.5475 28.9001 15.4559 28.2728L15.3792 27.7473C15.2964 27.1798 14.509 27.1023 14.3171 27.6427L14.1393 28.1432C13.9271 28.7405 13.0395 28.5639 13.0721 27.9309L13.0994 27.4005C13.1288 26.8277 12.3717 26.5981 12.078 27.0906L11.806 27.5468C11.4814 28.0913 10.6453 27.7449 10.8007 27.1304L10.931 26.6155C11.0716 26.0596 10.3738 25.6866 9.98971 26.1124L9.63393 26.5068C9.20935 26.9774 8.45687 26.4746 8.7292 25.9022L8.9574 25.4226C9.20379 24.9048 8.59219 24.4029 8.13236 24.7455L7.70649 25.0629C7.19825 25.4417 6.55831 24.8018 6.93708 24.2935L7.25445 23.8676C7.59714 23.4078 7.09521 22.7962 6.57736 23.0426L6.09776 23.2708C5.52539 23.5431 5.02259 22.7906 5.49323 22.3661L5.8876 22.0103C6.31341 21.6262 5.94044 20.9284 5.38447 21.069L4.86957 21.1993C4.25507 21.3547 3.90873 20.5186 4.45316 20.194L4.90935 19.922C5.40192 19.6283 5.17225 18.8712 4.59953 18.9006L4.06911 18.9279C3.43609 18.9605 3.25953 18.0729 3.85683 17.8607L4.35732 17.6829C4.89772 17.491 4.82017 16.7036 4.2527 16.6208L3.72715 16.5441C3.09994 16.4525 3.09994 15.5475 3.72715 15.4559L4.2527 15.3792C4.82017 15.2964 4.89772 14.509 4.35732 14.3171L3.85683 14.1393C3.25953 13.9271 3.43609 13.0395 4.06911 13.0721L4.59953 13.0994C5.17225 13.1288 5.40192 12.3717 4.90935 12.078L4.45316 11.806C3.90874 11.4814 4.25507 10.6453 4.86957 10.8007L5.38447 10.931C5.94044 11.0716 6.31341 10.3738 5.8876 9.98971L5.49323 9.63393C5.02259 9.20935 5.52539 8.45687 6.09776 8.7292L6.57736 8.9574C7.09521 9.20379 7.59714 8.59219 7.25445 8.13236L6.93708 7.70649C6.55831 7.19825 7.19825 6.55831 7.70649 6.93708L8.13236 7.25445C8.59219 7.59714 9.20379 7.09521 8.9574 6.57736L8.7292 6.09776C8.45687 5.52539 9.20935 5.02259 9.63394 5.49323L9.98971 5.8876C10.3738 6.31341 11.0716 5.94044 10.931 5.38447L10.8007 4.86957C10.6453 4.25507 11.4814 3.90874 11.806 4.45316L12.078 4.90935C12.3717 5.40192 13.1288 5.17225 13.0994 4.59953L13.0721 4.06911C13.0395 3.43609 13.9271 3.25953 14.1393 3.85683L14.3171 4.35732C14.509 4.89772 15.2964 4.82017 15.3792 4.2527L15.4559 3.72715Z" fill="#D82626"/>
<path d="M19.957 11.3335L21.3327 12.2748L15.368 20.6668H13.9923L10.666 16.1203L12.0417 14.8685L14.6801 17.272L19.957 11.3335Z" fill="white"/>
</svg>
