<svg xmlns="http://www.w3.org/2000/svg" width="18" height="19" viewBox="0 0 18 19" fill="none">
  <path d="M7.83741 16.9032L15.0901 9.70117C15.2189 9.58519 15.2833 9.44022 15.2833 9.26626C15.2833 9.0923 15.2189 8.94733 15.0901 8.83136L7.83741 1.62935C7.70863 1.50177 7.55643 1.43799 7.38082 1.43799C7.20521 1.43799 7.05887 1.50177 6.9418 1.62935L5.32619 3.24719C5.19741 3.36316 5.13302 3.50813 5.13302 3.68209C5.13302 3.85606 5.19741 4.00102 5.32619 4.117L10.5242 9.26626L5.32619 14.4155C5.19741 14.5431 5.13302 14.6881 5.13302 14.8504C5.13302 15.0128 5.19741 15.1636 5.32619 15.3027L6.9418 16.9032C7.07058 17.0308 7.21692 17.0945 7.38082 17.0945C7.54473 17.0945 7.69692 17.0308 7.83741 16.9032Z" fill="white"/>
</svg>