<svg width="22" height="22" viewBox="0 0 22 22" fill="none" xmlns="http://www.w3.org/2000/svg">
<path d="M21.6313 10.1853L20.4282 7.1775C20.3514 6.98667 20.2193 6.82317 20.0489 6.70801C19.8784 6.59285 19.6774 6.53129 19.4717 6.53125H16.1562V5.5C16.1562 5.40883 16.12 5.3214 16.0556 5.25693C15.9911 5.19247 15.9037 5.15625 15.8125 5.15625H2.75C2.4765 5.15625 2.21419 5.2649 2.0208 5.4583C1.8274 5.65169 1.71875 5.914 1.71875 6.1875V15.8125C1.71875 16.086 1.8274 16.3483 2.0208 16.5417C2.21419 16.7351 2.4765 16.8438 2.75 16.8438H4.49367C4.57669 17.4161 4.86307 17.9394 5.30038 18.3178C5.73769 18.6963 6.29667 18.9046 6.875 18.9046C7.45333 18.9046 8.01231 18.6963 8.44962 18.3178C8.88693 17.9394 9.17331 17.4161 9.25633 16.8438H14.1187C14.2017 17.4161 14.4881 17.9394 14.9254 18.3178C15.3627 18.6963 15.9217 18.9046 16.5 18.9046C17.0783 18.9046 17.6373 18.6963 18.0746 18.3178C18.5119 17.9394 18.7983 17.4161 18.8813 16.8438H20.625C20.8985 16.8438 21.1608 16.7351 21.3542 16.5417C21.5476 16.3483 21.6562 16.086 21.6562 15.8125V10.3125C21.6561 10.2689 21.6476 10.2257 21.6313 10.1853ZM16.1562 7.21875H19.4717C19.5405 7.21861 19.6077 7.2391 19.6647 7.27755C19.7216 7.316 19.7658 7.37065 19.7914 7.43445L20.8046 9.96875H16.1562V7.21875ZM2.40625 6.1875C2.40625 6.09633 2.44247 6.0089 2.50693 5.94443C2.5714 5.87997 2.65883 5.84375 2.75 5.84375H15.4688V12.0312H2.40625V6.1875ZM6.875 18.2188C6.53506 18.2188 6.20276 18.1179 5.92011 17.9291C5.63747 17.7402 5.41717 17.4718 5.28708 17.1577C5.15699 16.8437 5.12296 16.4981 5.18928 16.1647C5.25559 15.8313 5.41929 15.525 5.65966 15.2847C5.90003 15.0443 6.20628 14.8806 6.53969 14.8143C6.87309 14.748 7.21868 14.782 7.53274 14.9121C7.8468 15.0422 8.11523 15.2625 8.30409 15.5451C8.49295 15.8278 8.59375 16.1601 8.59375 16.5C8.59375 16.9558 8.41267 17.393 8.09034 17.7153C7.76801 18.0377 7.33084 18.2188 6.875 18.2188ZM14.1187 16.1562H9.25633C9.17331 15.5839 8.88693 15.0606 8.44962 14.6822C8.01231 14.3037 7.45333 14.0954 6.875 14.0954C6.29667 14.0954 5.73769 14.3037 5.30038 14.6822C4.86307 15.0606 4.57669 15.5839 4.49367 16.1562H2.75C2.65883 16.1562 2.5714 16.12 2.50693 16.0556C2.44247 15.9911 2.40625 15.9037 2.40625 15.8125V12.7188H15.4688V14.3266C15.1106 14.497 14.7999 14.7531 14.5644 15.0723C14.3289 15.3914 14.1758 15.7637 14.1187 16.1562ZM16.5 18.2188C16.1601 18.2188 15.8278 18.1179 15.5451 17.9291C15.2625 17.7402 15.0422 17.4718 14.9121 17.1577C14.782 16.8437 14.748 16.4981 14.8143 16.1647C14.8806 15.8313 15.0443 15.525 15.2847 15.2847C15.525 15.0443 15.8313 14.8806 16.1647 14.8143C16.4981 14.748 16.8437 14.782 17.1577 14.9121C17.4718 15.0422 17.7402 15.2625 17.9291 15.5451C18.1179 15.8278 18.2188 16.1601 18.2188 16.5C18.2188 16.9558 18.0377 17.393 17.7153 17.7153C17.393 18.0377 16.9558 18.2188 16.5 18.2188ZM20.9688 15.8125C20.9688 15.9037 20.9325 15.9911 20.8681 16.0556C20.8036 16.12 20.7162 16.1562 20.625 16.1562H18.8813C18.7901 15.5247 18.4518 14.9553 17.9407 14.5732C17.4297 14.191 16.7878 14.0276 16.1562 14.1187V10.6562H20.9688V15.8125Z" fill="white"/>
</svg>
